<svg width="16" height="16" viewBox="0 0 16 16" fill="none" xmlns="http://www.w3.org/2000/svg">
<path fill-rule="evenodd" clip-rule="evenodd" d="M4.26152 8.18996C4.52478 7.93255 4.94686 7.93729 5.20427 8.20055C5.46168 8.46381 5.45694 8.88589 5.19368 9.1433L3.63573 10.6666L14.0003 10.6666C14.3685 10.6666 14.667 10.9651 14.667 11.3333C14.667 11.7015 14.3685 12 14.0003 12L3.63573 12L5.19368 13.5233C5.45694 13.7807 5.46168 14.2028 5.20427 14.466C4.94686 14.7293 4.52478 14.734 4.26152 14.4766L1.53425 11.81C1.40597 11.6845 1.33366 11.5127 1.33366 11.3333C1.33366 11.1539 1.40597 10.982 1.53425 10.8566L4.26152 8.18996ZM11.7391 1.52329C11.4759 1.26588 11.0538 1.27062 10.7964 1.53388C10.539 1.79714 10.5437 2.21922 10.807 2.47663L12.3649 3.99996L2.00033 3.99996C1.63214 3.99996 1.33366 4.29844 1.33366 4.66663C1.33366 5.03481 1.63214 5.33329 2.00033 5.33329L12.3649 5.33329L10.807 6.85662C10.5437 7.11403 10.539 7.53611 10.7964 7.79937C11.0538 8.06263 11.4759 8.06737 11.7391 7.80996L14.4664 5.1433C14.5947 5.01787 14.667 4.84603 14.667 4.66663C14.667 4.48722 14.5947 4.31538 14.4664 4.18995L11.7391 1.52329Z" fill="#8E8E8E"/>
</svg>
