<svg width="24" height="24" viewBox="0 0 24 24" fill="none" xmlns="http://www.w3.org/2000/svg">
<path fill-rule="evenodd" clip-rule="evenodd" d="M12 2C6.47716 2.00001 2 6.47715 2 12C2 17.5228 6.47716 22 12 22C17.5228 22 22 17.5228 22 12C22 6.47715 17.5228 2 12 2ZM12 4C16.4183 4 20 7.58172 20 12C20 16.4183 16.4183 20 12 20C7.58172 20 4 16.4183 4 12C4 7.58172 7.58173 4 12 4ZM9 7.49998C8.17157 7.49998 7.5 8.17156 7.5 8.99998C7.5 9.82841 8.17157 10.5 9 10.5C9.82843 10.5 10.5 9.82841 10.5 8.99998C10.5 8.17156 9.82843 7.49998 9 7.49998ZM15.7071 9.70709L9.70711 15.7071C9.31658 16.0976 8.68342 16.0976 8.29289 15.7071C7.90237 15.3166 7.90237 14.6834 8.29289 14.2929L14.2929 8.29288C14.6834 7.90235 15.3166 7.90235 15.7071 8.29288C16.0976 8.6834 16.0976 9.31657 15.7071 9.70709ZM13.5 15C13.5 14.1716 14.1716 13.5 15 13.5C15.8284 13.5 16.5 14.1716 16.5 15C16.5 15.8284 15.8284 16.5 15 16.5C14.1716 16.5 13.5 15.8284 13.5 15Z" fill="white"/>
</svg>
