<svg width="16" height="16" viewBox="0 0 16 16" fill="none" xmlns="http://www.w3.org/2000/svg">
<path fill-rule="evenodd" clip-rule="evenodd" d="M7.315 13.4771L8.00024 12.3334L8.70266 13.4667C8.27851 13.7296 7.74307 13.7336 7.315 13.4771ZM6.99503 4.33834C6.47969 3.98833 5.80642 3.66671 5.0723 3.66671C3.38873 3.66671 2.40055 4.9048 2.72994 6.60421C3.2939 9.51376 8.00024 12.3334 8.00024 12.3334C7.315 13.4771 7.31526 13.4773 7.315 13.4771L7.31233 13.4755L7.30795 13.4729L7.29412 13.4645C7.28269 13.4576 7.26686 13.4479 7.24692 13.4356C7.20705 13.411 7.15065 13.3758 7.07993 13.3307C6.93859 13.2405 6.7394 13.1104 6.50003 12.9456C6.02311 12.6173 5.37761 12.1453 4.70901 11.5723C4.04418 11.0027 3.33108 10.3117 2.73637 9.54222C2.15001 8.78354 1.61711 7.86982 1.42097 6.85792C1.19718 5.70334 1.39836 4.55131 2.10389 3.66677C2.81397 2.77653 3.895 2.33337 5.0723 2.33337C6.28808 2.33337 7.29868 2.90602 7.92565 3.36312C7.9509 3.38153 7.97577 3.39992 8.00024 3.41829C8.02472 3.39992 8.04959 3.38153 8.07484 3.36312C8.70181 2.90602 9.71241 2.33337 10.9282 2.33337C13.5583 2.33337 15.0755 4.76987 14.5679 6.91168C14.3352 7.89374 13.796 8.78807 13.2085 9.53888C12.6129 10.3001 11.9089 10.9877 11.2538 11.5574C10.5954 12.13 9.96356 12.6031 9.49733 12.9328C9.26339 13.0982 9.06909 13.229 8.93135 13.3196C8.86243 13.3649 8.80752 13.4003 8.76874 13.425C8.75892 13.4313 8.75013 13.4368 8.7424 13.4417C8.73487 13.4465 8.72835 13.4506 8.72287 13.4541L8.70946 13.4625L8.70522 13.4651L8.70266 13.4667C8.70241 13.4668 8.70266 13.4667 8.00024 12.3334C8.00024 12.3334 12.5864 9.49091 13.2705 6.60421C13.5999 5.21432 12.6118 3.66671 10.9282 3.66671C10.1941 3.66671 9.5208 3.98833 9.00546 4.33834C8.39035 4.75611 8.00024 5.21433 8.00024 5.21433C8.00024 5.21433 7.61014 4.75611 6.99503 4.33834Z" fill="#8E8E8E"/>
</svg>
