<svg width="20" height="14" viewBox="0 0 20 14" fill="none" xmlns="http://www.w3.org/2000/svg">
<path fill-rule="evenodd" clip-rule="evenodd" d="M3 0C1.34315 0 0 1.34315 0 3V11C0 12.6569 1.34315 14 3 14H17C18.6569 14 20 12.6569 20 11V3C20 1.34315 18.6569 0 17 0H3ZM3.49607 2.13174C3.01655 1.85773 2.40569 2.02433 2.13168 2.50385C1.85767 2.98337 2.02427 3.59422 2.50379 3.86823L9.50379 7.86823C9.81122 8.04391 10.1886 8.04391 10.4961 7.86823L17.4961 3.86823C17.9756 3.59422 18.1422 2.98337 17.8682 2.50385C17.5942 2.02433 16.9833 1.85773 16.5038 2.13174L9.99993 5.84824L3.49607 2.13174Z" fill="#E2CE19"/>
</svg>
