<svg width="20" height="20" viewBox="0 0 20 20" fill="none" xmlns="http://www.w3.org/2000/svg">
<path fill-rule="evenodd" clip-rule="evenodd" d="M10 20C15.5228 20 20 15.5228 20 10C20 4.47715 15.5228 0 10 0C4.47715 0 0 4.47715 0 10C0 15.5228 4.47715 20 10 20ZM14.703 12.4201L13.5148 11.2294C13.1188 10.8325 12.3267 10.8325 11.9307 11.2294L11.1386 12.0232C9.71796 11.8211 8.16834 10.2371 7.97032 8.84798L8.7624 8.05418C9.15843 7.65728 9.15846 6.86345 8.7624 6.46658L7.56717 5.32148C7.17107 4.92457 6.38628 4.87893 5.99019 5.27588C5.19812 6.06968 5 6.66512 5 7.45887C5 8.64961 5.19824 10.0385 7.57445 12.4199C9.95066 14.8013 10.9405 15 12.5246 15C12.9304 15 13.9367 14.7756 14.7029 14.0077C15.099 13.6107 15.099 12.817 14.703 12.4201Z" fill="#E2CE19"/>
</svg>
