<svg width="50" height="50" viewBox="0 0 50 50" fill="none" xmlns="http://www.w3.org/2000/svg">
<path fill-rule="evenodd" clip-rule="evenodd" d="M25.338 4.16669C17.1497 4.16669 10.5118 10.6023 10.5118 18.541C10.5118 21.0566 11.1784 23.4214 12.3496 25.4782L5.0863 35.5351C4.65336 36.1346 4.58218 36.9121 4.89947 37.5761C5.21676 38.2401 5.87455 38.6903 6.62615 38.7577L12.2038 39.258L15.3815 44.7803C15.7369 45.3978 16.3949 45.7946 17.1232 45.8307C17.8516 45.8667 18.5479 45.5369 18.9662 44.9577L25.6221 35.7418L32.107 44.7209C32.5253 45.3001 33.2215 45.6299 33.9499 45.5938C34.6783 45.5578 35.3363 45.161 35.6916 44.5435L38.8693 39.0212L44.447 38.5208C45.1986 38.4534 45.8564 38.0033 46.1737 37.3393C46.491 36.6753 46.4198 35.8977 45.9869 35.2983L38.571 25.0301C39.59 23.0808 40.1642 20.8759 40.1642 18.541C40.1642 10.6023 33.5263 4.16669 25.338 4.16669ZM35.9575 28.5717C33.9694 30.5498 31.3983 31.9745 28.5133 32.5848L33.6387 39.6815L35.7136 36.0756C36.0538 35.4844 36.6728 35.0937 37.3681 35.0314L40.4248 34.7572L35.9575 28.5717ZM10.6484 34.994L15.0535 28.8946C17.1092 30.8145 19.7353 32.1643 22.661 32.6816L17.4345 39.9183L15.3595 36.3125C15.0193 35.7212 14.4004 35.3306 13.705 35.2682L10.6484 34.994ZM14.7479 18.541C14.7479 12.8705 19.4892 8.27363 25.338 8.27363C31.1868 8.27363 35.9281 12.8705 35.9281 18.541C35.9281 24.2115 31.1868 28.8083 25.338 28.8083C19.4892 28.8083 14.7479 24.2115 14.7479 18.541ZM25.338 14.434C22.9985 14.434 21.102 16.2728 21.102 18.541C21.102 20.8092 22.9985 22.6479 25.338 22.6479C27.6775 22.6479 29.5741 20.8092 29.5741 18.541C29.5741 16.2728 27.6775 14.434 25.338 14.434Z" fill="#206BB0"/>
</svg>
