<svg width="50" height="50" viewBox="0 0 50 50" fill="none" xmlns="http://www.w3.org/2000/svg">
<path fill-rule="evenodd" clip-rule="evenodd" d="M40.5999 12.2597L28.1501 5.01719C26.2008 3.88319 23.7992 3.88319 21.8499 5.01719L9.40013 12.2597C7.45082 13.3937 6.25 15.4895 6.25 17.7575V32.2426C6.25 34.5106 7.45082 36.6063 9.40013 37.7403L21.8499 44.9829C23.7992 46.1168 26.2008 46.1168 28.1501 44.9829L40.5999 37.7403C42.5492 36.6063 43.75 34.5106 43.75 32.2426V17.7575C43.75 15.4895 42.5492 13.3937 40.5999 12.2597ZM23.95 8.68232C24.5997 8.30433 25.4003 8.30433 26.05 8.68232L38.4998 15.9249C39.1496 16.3029 39.5498 17.0015 39.5498 17.7575V32.2426C39.5498 32.9986 39.1496 33.6972 38.4998 34.0752L26.05 41.3177C25.4003 41.6957 24.5997 41.6957 23.95 41.3177L11.5002 34.0752C10.8504 33.6972 10.4502 32.9986 10.4502 32.2426V17.7575C10.4502 17.0015 10.8504 16.3029 11.5002 15.9249L23.95 8.68232ZM31.9471 22.0146C32.6304 21.0703 32.4247 19.7466 31.4875 19.0581C30.5504 18.3695 29.2367 18.5769 28.5533 19.5212L24.0562 25.7355L22.4464 23.6866C21.7265 22.7703 20.4057 22.6155 19.4963 23.3409C18.5869 24.0663 18.4333 25.3972 19.1533 26.3135L22.4784 30.5456C22.8858 31.0641 23.5103 31.3609 24.1665 31.3478C24.8228 31.3347 25.4352 31.0132 25.8218 30.4789L31.9471 22.0146Z" fill="#206BB0"/>
</svg>
