<svg width="50" height="50" viewBox="0 0 50 50" fill="none" xmlns="http://www.w3.org/2000/svg">
<path fill-rule="evenodd" clip-rule="evenodd" d="M37.5 10.4167C37.5 11.5673 38.4328 12.5 39.5834 12.5C40.7339 12.5 41.6667 11.5673 41.6667 10.4167C41.6667 9.26609 40.7339 8.33335 39.5834 8.33335C38.4328 8.33335 37.5 9.26609 37.5 10.4167ZM39.5834 4.16669C36.1316 4.16669 33.3334 6.96491 33.3334 10.4167C33.3334 11.3816 33.552 12.2954 33.9425 13.1113L30.7446 16.3092C29.0978 15.2185 27.1231 14.5834 25 14.5834C22.8769 14.5834 20.9022 15.2185 19.2555 16.3092L16.0576 13.1113C16.448 12.2954 16.6667 11.3816 16.6667 10.4167C16.6667 6.96491 13.8685 4.16669 10.4167 4.16669C6.96491 4.16669 4.16669 6.96491 4.16669 10.4167C4.16669 13.8685 6.96491 16.6667 10.4167 16.6667C11.3816 16.6667 12.2954 16.448 13.1113 16.0576L16.3092 19.2555C15.2185 20.9022 14.5834 22.8769 14.5834 25C14.5834 27.1231 15.2185 29.0978 16.3092 30.7446L13.1113 33.9425C12.2954 33.552 11.3816 33.3334 10.4167 33.3334C6.96491 33.3334 4.16669 36.1316 4.16669 39.5834C4.16669 43.0351 6.96491 45.8334 10.4167 45.8334C13.8685 45.8334 16.6667 43.0351 16.6667 39.5834C16.6667 38.6185 16.448 37.7046 16.0576 36.8887L19.2555 33.6909C20.9022 34.7815 22.8769 35.4167 25 35.4167C27.1231 35.4167 29.0978 34.7815 30.7446 33.6909L33.9425 36.8887C33.552 37.7046 33.3334 38.6185 33.3334 39.5834C33.3334 43.0351 36.1316 45.8334 39.5834 45.8334C43.0351 45.8334 45.8334 43.0351 45.8334 39.5834C45.8334 36.1316 43.0351 33.3334 39.5834 33.3334C38.6185 33.3334 37.7046 33.552 36.8887 33.9425L33.6909 30.7446C34.7815 29.0978 35.4167 27.1231 35.4167 25C35.4167 22.8769 34.7815 20.9022 33.6909 19.2555L36.8887 16.0576C37.7046 16.448 38.6185 16.6667 39.5834 16.6667C43.0351 16.6667 45.8334 13.8685 45.8334 10.4167C45.8334 6.96491 43.0351 4.16669 39.5834 4.16669ZM18.75 25C18.75 28.4518 21.5482 31.25 25 31.25C28.4518 31.25 31.25 28.4518 31.25 25C31.25 21.5482 28.4518 18.75 25 18.75C21.5482 18.75 18.75 21.5482 18.75 25ZM39.5834 41.6667C38.4328 41.6667 37.5 40.7339 37.5 39.5834C37.5 38.4328 38.4328 37.5 39.5834 37.5C40.7339 37.5 41.6667 38.4328 41.6667 39.5834C41.6667 40.7339 40.7339 41.6667 39.5834 41.6667ZM8.33335 39.5834C8.33335 40.7339 9.26609 41.6667 10.4167 41.6667C11.5673 41.6667 12.5 40.7339 12.5 39.5834C12.5 38.4328 11.5673 37.5 10.4167 37.5C9.26609 37.5 8.33335 38.4328 8.33335 39.5834ZM10.4167 12.5C9.26609 12.5 8.33335 11.5673 8.33335 10.4167C8.33335 9.26609 9.26609 8.33335 10.4167 8.33335C11.5673 8.33335 12.5 9.26609 12.5 10.4167C12.5 11.5673 11.5673 12.5 10.4167 12.5Z" fill="#206BB0"/>
</svg>
