<svg width="32" height="32" viewBox="0 0 32 32" fill="none" xmlns="http://www.w3.org/2000/svg">
<path d="M32 16C32 7.16344 24.8366 0 16 0C7.16344 0 0 7.16344 0 16C0 24.8366 7.16344 32 16 32C24.8366 32 32 24.8366 32 16Z" fill="white"/>
<path d="M8 15.6667C8 12.0526 8 10.2455 9.12276 9.12276C10.2455 8 12.0526 8 15.6667 8H16.3333C19.9474 8 21.7545 8 22.8772 9.12276C24 10.2455 24 12.0526 24 15.6667V16.3333C24 19.9474 24 21.7545 22.8772 22.8772C21.7545 24 19.9474 24 16.3333 24H15.6667C12.0526 24 10.2455 24 9.12276 22.8772C8 21.7545 8 19.9474 8 16.3333L8 15.6667Z" fill="#2787F5"/>
<path fill-rule="evenodd" clip-rule="evenodd" d="M12.3336 13H11.1667C10.8333 13 10.7666 13.1569 10.7666 13.3299C10.7666 13.639 11.1622 15.1716 12.6087 17.1986C13.573 18.5829 14.9316 19.3333 16.1679 19.3333C16.9096 19.3333 17.0014 19.1667 17.0014 18.8796V17.8333C17.0014 17.5 17.0717 17.4335 17.3065 17.4335C17.4796 17.4335 17.7763 17.52 18.4687 18.1874C19.2599 18.9785 19.3903 19.3333 19.8354 19.3333H21.0023C21.3357 19.3333 21.5024 19.1667 21.4063 18.8378C21.301 18.51 20.9233 18.0343 20.422 17.4706C20.15 17.1492 19.742 16.8031 19.6184 16.6301C19.4453 16.4076 19.4948 16.3087 19.6184 16.111C19.6184 16.111 21.0401 14.1086 21.1885 13.4289C21.2627 13.1816 21.1885 13 20.8356 13H19.6687C19.372 13 19.2352 13.1569 19.161 13.3299C19.161 13.3299 18.5676 14.7761 17.7269 15.7154C17.4549 15.9873 17.3313 16.0739 17.1829 16.0739C17.1087 16.0739 17.0014 15.9873 17.0014 15.7402V13.4289C17.0014 13.1322 16.9153 13 16.668 13H14.8342C14.6488 13 14.5373 13.1377 14.5373 13.2682C14.5373 13.5494 14.9576 13.6142 15.0009 14.4053V16.1233C15.0009 16.5 14.9329 16.5683 14.7845 16.5683C14.3889 16.5683 13.4266 15.1157 12.8559 13.4536C12.7441 13.1305 12.6319 13 12.3336 13Z" fill="white"/>
</svg>
