<svg width="304" height="73" viewBox="0 0 304 73" fill="none" xmlns="http://www.w3.org/2000/svg">
<path d="M93.304 20.8479V22.3059C93.304 25.0059 92.44 27.1929 90.712 28.8669C88.984 30.5409 86.752 31.3779 84.016 31.3779C81.1 31.3779 78.679 30.4329 76.753 28.5429C74.845 26.6349 73.891 24.3129 73.891 21.5769C73.891 18.8229 74.836 16.4919 76.726 14.5839C78.634 12.6759 80.992 11.7219 83.8 11.7219C85.564 11.7219 87.175 12.1269 88.633 12.9369C90.091 13.7289 91.225 14.7909 92.035 16.1229L88.849 17.9589C88.399 17.1849 87.715 16.5549 86.797 16.0689C85.897 15.5829 84.889 15.3399 83.773 15.3399C81.973 15.3399 80.488 15.9339 79.318 17.1219C78.166 18.2919 77.59 19.7769 77.59 21.5769C77.59 23.3589 78.175 24.8349 79.345 26.0049C80.533 27.1569 82.099 27.7329 84.043 27.7329C85.483 27.7329 86.671 27.4179 87.607 26.7879C88.561 26.1399 89.209 25.2579 89.551 24.1419H83.827V20.8479H93.304Z" fill="#0F2E53"/>
<path d="M106.322 30.9999L102.515 24.4389H99.6802V30.9999H95.9542V12.0999H103.514C105.26 12.0999 106.745 12.7119 107.969 13.9359C109.193 15.1599 109.805 16.6359 109.805 18.3639C109.805 19.5339 109.472 20.6229 108.806 21.6309C108.14 22.6209 107.258 23.3679 106.16 23.8719L110.345 30.9999H106.322ZM99.6802 15.5829V21.1719H103.514C104.216 21.1719 104.819 20.9019 105.323 20.3619C105.827 19.8039 106.079 19.1379 106.079 18.3639C106.079 17.5899 105.827 16.9329 105.323 16.3929C104.819 15.8529 104.216 15.5829 103.514 15.5829H99.6802Z" fill="#0F2E53"/>
<path d="M124.689 30.9999L123.555 27.5979H116.022L114.888 30.9999H110.865L117.48 12.0999H122.097L128.739 30.9999H124.689ZM117.21 24.1149H122.394L119.802 16.3929L117.21 24.1149Z" fill="#0F2E53"/>
<path d="M138.08 12.0999C140.672 12.0999 142.832 13.0089 144.56 14.8269C146.306 16.6449 147.179 18.8859 147.179 21.5499C147.179 24.2139 146.306 26.4549 144.56 28.2729C142.832 30.0909 140.672 30.9999 138.08 30.9999H130.574V12.0999H138.08ZM138.08 27.4359C139.718 27.4359 141.05 26.8959 142.076 25.8159C143.102 24.7179 143.615 23.2959 143.615 21.5499C143.615 19.8039 143.102 18.3909 142.076 17.3109C141.05 16.2129 139.718 15.6639 138.08 15.6639H134.3V27.4359H138.08Z" fill="#0F2E53"/>
<path d="M149.822 12.0999H153.548V30.9999H149.822V12.0999Z" fill="#0F2E53"/>
<path d="M167.415 30.9999L163.608 24.4389H160.773V30.9999H157.047V12.0999H164.607C166.353 12.0999 167.838 12.7119 169.062 13.9359C170.286 15.1599 170.898 16.6359 170.898 18.3639C170.898 19.5339 170.565 20.6229 169.899 21.6309C169.233 22.6209 168.351 23.3679 167.253 23.8719L171.438 30.9999H167.415ZM160.773 15.5829V21.1719H164.607C165.309 21.1719 165.912 20.9019 166.416 20.3619C166.92 19.8039 167.172 19.1379 167.172 18.3639C167.172 17.5899 166.92 16.9329 166.416 16.3929C165.912 15.8529 165.309 15.5829 164.607 15.5829H160.773Z" fill="#0F2E53"/>
<path d="M184.567 12.0999H188.293V30.9999H185.458L177.358 19.4439V30.9999H173.632V12.0999H176.467L184.567 23.6289V12.0999Z" fill="#0F2E53"/>
<path d="M191.799 12.0999H195.525V30.9999H191.799V12.0999Z" fill="#0F2E53"/>
<path d="M199.024 24.5199V21.1719H209.149V24.5199H199.024Z" fill="#0F2E53"/>
<path d="M223.023 30.9999L219.216 24.4389H216.381V30.9999H212.655V12.0999H220.215C221.961 12.0999 223.446 12.7119 224.67 13.9359C225.894 15.1599 226.506 16.6359 226.506 18.3639C226.506 19.5339 226.173 20.6229 225.507 21.6309C224.841 22.6209 223.959 23.3679 222.861 23.8719L227.046 30.9999H223.023ZM216.381 15.5829V21.1719H220.215C220.917 21.1719 221.52 20.9019 222.024 20.3619C222.528 19.8039 222.78 19.1379 222.78 18.3639C222.78 17.5899 222.528 16.9329 222.024 16.3929C221.52 15.8529 220.917 15.5829 220.215 15.5829H216.381Z" fill="#0F2E53"/>
<path d="M236.156 31.3779C234.049 31.3779 232.322 30.7839 230.971 29.5959C229.621 28.4079 228.947 26.8149 228.947 24.8169V12.0999H232.646V24.5199C232.646 25.5099 232.924 26.2929 233.482 26.8689C234.059 27.4449 234.95 27.7329 236.156 27.7329C237.361 27.7329 238.243 27.4449 238.801 26.8689C239.378 26.2929 239.665 25.5099 239.665 24.5199V12.0999H243.391V24.8169C243.391 26.8149 242.717 28.4079 241.367 29.5959C240.016 30.7839 238.28 31.3779 236.156 31.3779Z" fill="#0F2E53"/>
<path d="M253.201 31.3779C251.329 31.3779 249.754 30.9639 248.476 30.1359C247.198 29.2899 246.298 28.1469 245.776 26.7069L248.962 24.8439C249.7 26.7699 251.149 27.7329 253.309 27.7329C254.353 27.7329 255.118 27.5439 255.604 27.1659C256.09 26.7879 256.333 26.3109 256.333 25.7349C256.333 25.0689 256.036 24.5559 255.442 24.1959C254.848 23.8179 253.786 23.4129 252.256 22.9809C251.41 22.7289 250.69 22.4769 250.096 22.2249C249.52 21.9729 248.935 21.6399 248.341 21.2259C247.765 20.7939 247.324 20.2539 247.018 19.6059C246.712 18.9579 246.559 18.2019 246.559 17.3379C246.559 15.6279 247.162 14.2689 248.368 13.2609C249.592 12.2349 251.059 11.7219 252.769 11.7219C254.299 11.7219 255.64 12.0999 256.792 12.8559C257.962 13.5939 258.871 14.6289 259.519 15.9609L256.387 17.7699C255.631 16.1499 254.425 15.3399 252.769 15.3399C251.995 15.3399 251.383 15.5199 250.933 15.8799C250.501 16.2219 250.285 16.6719 250.285 17.2299C250.285 17.8239 250.528 18.3099 251.014 18.6879C251.518 19.0479 252.472 19.4439 253.876 19.8759C254.452 20.0559 254.884 20.1999 255.172 20.3079C255.478 20.3979 255.883 20.5509 256.387 20.7669C256.909 20.9649 257.305 21.1539 257.575 21.3339C257.863 21.5139 258.187 21.7569 258.547 22.0629C258.907 22.3689 259.177 22.6839 259.357 23.0079C259.555 23.3319 259.717 23.7279 259.843 24.1959C259.987 24.6459 260.059 25.1409 260.059 25.6809C260.059 27.4269 259.42 28.8129 258.142 29.8389C256.882 30.8649 255.235 31.3779 253.201 31.3779Z" fill="#0F2E53"/>
<path d="M268.362 31.3779C266.49 31.3779 264.915 30.9639 263.637 30.1359C262.359 29.2899 261.459 28.1469 260.937 26.7069L264.123 24.8439C264.861 26.7699 266.31 27.7329 268.47 27.7329C269.514 27.7329 270.279 27.5439 270.765 27.1659C271.251 26.7879 271.494 26.3109 271.494 25.7349C271.494 25.0689 271.197 24.5559 270.603 24.1959C270.009 23.8179 268.947 23.4129 267.417 22.9809C266.571 22.7289 265.851 22.4769 265.257 22.2249C264.681 21.9729 264.096 21.6399 263.502 21.2259C262.926 20.7939 262.485 20.2539 262.179 19.6059C261.873 18.9579 261.72 18.2019 261.72 17.3379C261.72 15.6279 262.323 14.2689 263.529 13.2609C264.753 12.2349 266.22 11.7219 267.93 11.7219C269.46 11.7219 270.801 12.0999 271.953 12.8559C273.123 13.5939 274.032 14.6289 274.68 15.9609L271.548 17.7699C270.792 16.1499 269.586 15.3399 267.93 15.3399C267.156 15.3399 266.544 15.5199 266.094 15.8799C265.662 16.2219 265.446 16.6719 265.446 17.2299C265.446 17.8239 265.689 18.3099 266.175 18.6879C266.679 19.0479 267.633 19.4439 269.037 19.8759C269.613 20.0559 270.045 20.1999 270.333 20.3079C270.639 20.3979 271.044 20.5509 271.548 20.7669C272.07 20.9649 272.466 21.1539 272.736 21.3339C273.024 21.5139 273.348 21.7569 273.708 22.0629C274.068 22.3689 274.338 22.6839 274.518 23.0079C274.716 23.3319 274.878 23.7279 275.004 24.1959C275.148 24.6459 275.22 25.1409 275.22 25.6809C275.22 27.4269 274.581 28.8129 273.303 29.8389C272.043 30.8649 270.396 31.3779 268.362 31.3779Z" fill="#0F2E53"/>
<path d="M277.519 12.0999H281.245V30.9999H277.519V12.0999Z" fill="#0F2E53"/>
<path d="M296.893 30.9999L295.759 27.5979H288.226L287.092 30.9999H283.069L289.684 12.0999H294.301L300.943 30.9999H296.893ZM289.414 24.1149H294.598L292.006 16.3929L289.414 24.1149Z" fill="#0F2E53"/>
<path d="M73.6278 37.3936V36.3779H80.7187V37.3936H77.7457V45.8325H76.6008V37.3936H73.6278Z" fill="#206BB0"/>
<path d="M84.2826 45.9802C83.5994 45.9802 83.01 45.8294 82.5145 45.5278C82.0221 45.2231 81.642 44.7984 81.3743 44.2536C81.1096 43.7058 80.9772 43.0687 80.9772 42.3424C80.9772 41.6161 81.1096 40.9759 81.3743 40.422C81.642 39.8649 82.0144 39.431 82.4914 39.1201C82.9716 38.8062 83.5317 38.6492 84.1718 38.6492C84.5412 38.6492 84.9059 38.7108 85.2659 38.8339C85.626 38.957 85.9538 39.157 86.2493 39.434C86.5447 39.7079 86.7802 40.0711 86.9556 40.5235C87.131 40.9759 87.2187 41.533 87.2187 42.1947V42.6563H81.7528V41.7146H86.1108C86.1108 41.3145 86.0307 40.9575 85.8707 40.6436C85.7137 40.3296 85.4891 40.0819 85.1967 39.9003C84.9074 39.7187 84.5658 39.6279 84.1718 39.6279C83.7379 39.6279 83.3624 39.7356 83.0454 39.9511C82.7315 40.1634 82.4899 40.4404 82.3206 40.782C82.1514 41.1237 82.0667 41.4899 82.0667 41.8808V42.5086C82.0667 43.0441 82.1591 43.4981 82.3437 43.8705C82.5315 44.2398 82.7915 44.5214 83.1239 44.7153C83.4563 44.9061 83.8425 45.0015 84.2826 45.0015C84.5689 45.0015 84.8274 44.9615 85.0582 44.8815C85.2921 44.7984 85.4937 44.6753 85.663 44.5122C85.8322 44.346 85.963 44.1398 86.0554 43.8936L87.1079 44.189C86.9971 44.546 86.8109 44.8599 86.5493 45.1308C86.2877 45.3985 85.9646 45.6078 85.5799 45.7586C85.1952 45.9063 84.7628 45.9802 84.2826 45.9802Z" fill="#206BB0"/>
<path d="M89.4981 38.7416L91.197 41.6407L92.8958 38.7416H94.1515L91.8617 42.287L94.1515 45.8325H92.8958L91.197 43.0811L89.4981 45.8325H88.2424L90.4953 42.287L88.2424 38.7416H89.4981Z" fill="#206BB0"/>
<path d="M100.452 41.7884V42.8041H96.5371V41.7884H100.452ZM96.7956 38.7416V45.8325H95.7061V38.7416H96.7956ZM101.283 38.7416V45.8325H100.193V38.7416H101.283Z" fill="#206BB0"/>
<path d="M106.153 45.9802C105.513 45.9802 104.951 45.8279 104.468 45.5232C103.988 45.2185 103.613 44.7922 103.342 44.2444C103.074 43.6966 102.94 43.0564 102.94 42.324C102.94 41.5853 103.074 40.9405 103.342 40.3896C103.613 39.8387 103.988 39.411 104.468 39.1063C104.951 38.8016 105.513 38.6492 106.153 38.6492C106.793 38.6492 107.353 38.8016 107.834 39.1063C108.317 39.411 108.692 39.8387 108.96 40.3896C109.231 40.9405 109.366 41.5853 109.366 42.324C109.366 43.0564 109.231 43.6966 108.96 44.2444C108.692 44.7922 108.317 45.2185 107.834 45.5232C107.353 45.8279 106.793 45.9802 106.153 45.9802ZM106.153 45.0015C106.639 45.0015 107.04 44.8769 107.353 44.6276C107.667 44.3783 107.9 44.0505 108.051 43.6443C108.201 43.238 108.277 42.7979 108.277 42.324C108.277 41.85 108.201 41.4084 108.051 40.999C107.9 40.5897 107.667 40.2588 107.353 40.0065C107.04 39.7541 106.639 39.6279 106.153 39.6279C105.667 39.6279 105.267 39.7541 104.953 40.0065C104.639 40.2588 104.407 40.5897 104.256 40.999C104.105 41.4084 104.03 41.85 104.03 42.324C104.03 42.7979 104.105 43.238 104.256 43.6443C104.407 44.0505 104.639 44.3783 104.953 44.6276C105.267 44.8769 105.667 45.0015 106.153 45.0015Z" fill="#206BB0"/>
<path d="M110.402 45.8325V44.8169H110.66C110.872 44.8169 111.049 44.7753 111.191 44.6922C111.333 44.606 111.446 44.4568 111.533 44.2444C111.622 44.029 111.69 43.7304 111.736 43.3488C111.785 42.9641 111.82 42.4748 111.842 41.8808L111.971 38.7416H116.698V45.8325H115.609V39.7572H113.005L112.894 42.287C112.87 42.8687 112.817 43.3811 112.737 43.8243C112.661 44.2644 112.542 44.6337 112.382 44.9323C112.225 45.2308 112.016 45.4555 111.754 45.6063C111.493 45.7571 111.165 45.8325 110.771 45.8325H110.402Z" fill="#206BB0"/>
<path d="M121.578 45.9802C120.938 45.9802 120.376 45.8279 119.893 45.5232C119.413 45.2185 119.037 44.7922 118.767 44.2444C118.499 43.6966 118.365 43.0564 118.365 42.324C118.365 41.5853 118.499 40.9405 118.767 40.3896C119.037 39.8387 119.413 39.411 119.893 39.1063C120.376 38.8016 120.938 38.6492 121.578 38.6492C122.218 38.6492 122.778 38.8016 123.258 39.1063C123.742 39.411 124.117 39.8387 124.385 40.3896C124.656 40.9405 124.791 41.5853 124.791 42.324C124.791 43.0564 124.656 43.6966 124.385 44.2444C124.117 44.7922 123.742 45.2185 123.258 45.5232C122.778 45.8279 122.218 45.9802 121.578 45.9802ZM121.578 45.0015C122.064 45.0015 122.464 44.8769 122.778 44.6276C123.092 44.3783 123.325 44.0505 123.475 43.6443C123.626 43.238 123.702 42.7979 123.702 42.324C123.702 41.85 123.626 41.4084 123.475 40.999C123.325 40.5897 123.092 40.2588 122.778 40.0065C122.464 39.7541 122.064 39.6279 121.578 39.6279C121.092 39.6279 120.692 39.7541 120.378 40.0065C120.064 40.2588 119.831 40.5897 119.681 40.999C119.53 41.4084 119.454 41.85 119.454 42.324C119.454 42.7979 119.53 43.238 119.681 43.6443C119.831 44.0505 120.064 44.3783 120.378 44.6276C120.692 44.8769 121.092 45.0015 121.578 45.0015Z" fill="#206BB0"/>
<path d="M130.831 38.7416V39.7572H127.544V45.8325H126.454V38.7416H130.831Z" fill="#206BB0"/>
<path d="M133.51 44.2259L136.927 38.7416H138.182V45.8325H137.093V40.3481L133.695 45.8325H132.421V38.7416H133.51V44.2259Z" fill="#206BB0"/>
<path d="M141.267 44.2259L144.683 38.7416H145.939V45.8325H144.85V40.3481L141.452 45.8325H140.178V38.7416H141.267V44.2259Z" fill="#206BB0"/>
<path d="M151.591 45.8325V38.7416H157.168V45.8325H156.078V39.7572H152.68V45.8325H151.591Z" fill="#206BB0"/>
<path d="M159.157 48.4916V38.7416H160.21V39.868H160.339C160.419 39.7449 160.53 39.5879 160.671 39.3971C160.816 39.2032 161.022 39.0309 161.29 38.8801C161.561 38.7262 161.927 38.6492 162.389 38.6492C162.986 38.6492 163.512 38.7985 163.968 39.097C164.423 39.3956 164.779 39.8187 165.034 40.3666C165.29 40.9144 165.417 41.5607 165.417 42.3055C165.417 43.0564 165.29 43.7074 165.034 44.2583C164.779 44.8061 164.425 45.2308 163.972 45.5324C163.52 45.8309 162.998 45.9802 162.407 45.9802C161.952 45.9802 161.587 45.9048 161.313 45.754C161.039 45.6001 160.828 45.4262 160.681 45.2323C160.533 45.0354 160.419 44.8722 160.339 44.743H160.247V48.4916H159.157ZM160.228 42.287C160.228 42.8225 160.307 43.295 160.464 43.7043C160.621 44.1105 160.85 44.4291 161.152 44.6599C161.453 44.8876 161.823 45.0015 162.26 45.0015C162.715 45.0015 163.095 44.8815 163.4 44.6414C163.708 44.3983 163.938 44.0721 164.092 43.6627C164.249 43.2503 164.328 42.7918 164.328 42.287C164.328 41.7884 164.251 41.3391 164.097 40.939C163.946 40.5358 163.717 40.2173 163.409 39.9834C163.104 39.7464 162.721 39.6279 162.26 39.6279C161.816 39.6279 161.444 39.7403 161.142 39.9649C160.841 40.1865 160.613 40.4974 160.459 40.8975C160.305 41.2945 160.228 41.7577 160.228 42.287Z" fill="#206BB0"/>
<path d="M169.96 45.9802C169.32 45.9802 168.758 45.8279 168.275 45.5232C167.795 45.2185 167.419 44.7922 167.148 44.2444C166.881 43.6966 166.747 43.0564 166.747 42.324C166.747 41.5853 166.881 40.9405 167.148 40.3896C167.419 39.8387 167.795 39.411 168.275 39.1063C168.758 38.8016 169.32 38.6492 169.96 38.6492C170.6 38.6492 171.16 38.8016 171.64 39.1063C172.123 39.411 172.499 39.8387 172.767 40.3896C173.037 40.9405 173.173 41.5853 173.173 42.324C173.173 43.0564 173.037 43.6966 172.767 44.2444C172.499 44.7922 172.123 45.2185 171.64 45.5232C171.16 45.8279 170.6 45.9802 169.96 45.9802ZM169.96 45.0015C170.446 45.0015 170.846 44.8769 171.16 44.6276C171.474 44.3783 171.706 44.0505 171.857 43.6443C172.008 43.238 172.083 42.7979 172.083 42.324C172.083 41.85 172.008 41.4084 171.857 40.999C171.706 40.5897 171.474 40.2588 171.16 40.0065C170.846 39.7541 170.446 39.6279 169.96 39.6279C169.474 39.6279 169.073 39.7541 168.76 40.0065C168.446 40.2588 168.213 40.5897 168.062 40.999C167.912 41.4084 167.836 41.85 167.836 42.324C167.836 42.7979 167.912 43.238 168.062 43.6443C168.213 44.0505 168.446 44.3783 168.76 44.6276C169.073 44.8769 169.474 45.0015 169.96 45.0015Z" fill="#206BB0"/>
<path d="M178.714 44.3552L181.188 38.7416H182.222L179.157 45.8325H178.271L175.261 38.7416H176.276L178.714 44.3552ZM175.925 38.7416V45.8325H174.836V38.7416H175.925ZM181.502 45.8325V38.7416H182.592V45.8325H181.502Z" fill="#206BB0"/>
<path d="M185.528 41.3083H187.559C188.39 41.3083 189.026 41.5191 189.466 41.9408C189.906 42.3624 190.126 42.8964 190.126 43.5427C190.126 43.9674 190.027 44.3537 189.83 44.7014C189.633 45.0461 189.344 45.3216 188.962 45.5278C188.581 45.7309 188.113 45.8325 187.559 45.8325H184.586V38.7416H185.675V44.8169H187.559C187.99 44.8169 188.344 44.703 188.621 44.4752C188.898 44.2475 189.036 43.9551 189.036 43.5981C189.036 43.2226 188.898 42.9164 188.621 42.6794C188.344 42.4424 187.99 42.324 187.559 42.324H185.528V41.3083ZM191.252 45.8325V38.7416H192.342V45.8325H191.252Z" fill="#206BB0"/>
<path d="M194.336 38.7416H195.425V44.8169H198.103V38.7416H199.193V44.8169H201.87V38.7416H202.96V45.8325H194.336V38.7416Z" fill="#206BB0"/>
<path d="M204.321 45.8325V44.8169H204.58C204.792 44.8169 204.969 44.7753 205.111 44.6922C205.252 44.606 205.366 44.4568 205.452 44.2444C205.542 44.029 205.609 43.7304 205.656 43.3488C205.705 42.9641 205.74 42.4748 205.762 41.8808L205.891 38.7416H210.618V45.8325H209.529V39.7572H206.925L206.814 42.287C206.79 42.8687 206.737 43.3811 206.657 43.8243C206.58 44.2644 206.462 44.6337 206.302 44.9323C206.145 45.2308 205.936 45.4555 205.674 45.6063C205.412 45.7571 205.085 45.8325 204.691 45.8325H204.321Z" fill="#206BB0"/>
<path d="M215.59 45.9802C214.907 45.9802 214.318 45.8294 213.822 45.5278C213.33 45.2231 212.95 44.7984 212.682 44.2536C212.417 43.7058 212.285 43.0687 212.285 42.3424C212.285 41.6161 212.417 40.9759 212.682 40.422C212.95 39.8649 213.322 39.431 213.799 39.1201C214.279 38.8062 214.839 38.6492 215.479 38.6492C215.849 38.6492 216.213 38.7108 216.574 38.8339C216.934 38.957 217.261 39.157 217.557 39.434C217.852 39.7079 218.088 40.0711 218.263 40.5235C218.439 40.9759 218.526 41.533 218.526 42.1947V42.6563H213.06V41.7146H217.418C217.418 41.3145 217.338 40.9575 217.178 40.6436C217.021 40.3296 216.797 40.0819 216.504 39.9003C216.215 39.7187 215.873 39.6279 215.479 39.6279C215.046 39.6279 214.67 39.7356 214.353 39.9511C214.039 40.1634 213.798 40.4404 213.628 40.782C213.459 41.1237 213.374 41.4899 213.374 41.8808V42.5086C213.374 43.0441 213.467 43.4981 213.651 43.8705C213.839 44.2398 214.099 44.5214 214.432 44.7153C214.764 44.9061 215.15 45.0015 215.59 45.0015C215.876 45.0015 216.135 44.9615 216.366 44.8815C216.6 44.7984 216.801 44.6753 216.971 44.5122C217.14 44.346 217.271 44.1398 217.363 43.8936L218.416 44.189C218.305 44.546 218.119 44.8599 217.857 45.1308C217.595 45.3985 217.272 45.6078 216.887 45.7586C216.503 45.9063 216.07 45.9802 215.59 45.9802Z" fill="#206BB0"/>
<path d="M224.929 41.7884V42.8041H221.015V41.7884H224.929ZM221.273 38.7416V45.8325H220.184V38.7416H221.273ZM225.76 38.7416V45.8325H224.671V38.7416H225.76Z" fill="#206BB0"/>
<path d="M232.496 41.7884V42.8041H228.581V41.7884H232.496ZM228.84 38.7416V45.8325H227.75V38.7416H228.84ZM233.327 38.7416V45.8325H232.237V38.7416H233.327Z" fill="#206BB0"/>
<path d="M238.197 45.9802C237.557 45.9802 236.995 45.8279 236.512 45.5232C236.032 45.2185 235.657 44.7922 235.386 44.2444C235.118 43.6966 234.984 43.0564 234.984 42.324C234.984 41.5853 235.118 40.9405 235.386 40.3896C235.657 39.8387 236.032 39.411 236.512 39.1063C236.995 38.8016 237.557 38.6492 238.197 38.6492C238.837 38.6492 239.397 38.8016 239.878 39.1063C240.361 39.411 240.736 39.8387 241.004 40.3896C241.275 40.9405 241.41 41.5853 241.41 42.324C241.41 43.0564 241.275 43.6966 241.004 44.2444C240.736 44.7922 240.361 45.2185 239.878 45.5232C239.397 45.8279 238.837 45.9802 238.197 45.9802ZM238.197 45.0015C238.683 45.0015 239.084 44.8769 239.397 44.6276C239.711 44.3783 239.944 44.0505 240.095 43.6443C240.245 43.238 240.321 42.7979 240.321 42.324C240.321 41.85 240.245 41.4084 240.095 40.999C239.944 40.5897 239.711 40.2588 239.397 40.0065C239.084 39.7541 238.683 39.6279 238.197 39.6279C237.711 39.6279 237.311 39.7541 236.997 40.0065C236.683 40.2588 236.451 40.5897 236.3 40.999C236.149 41.4084 236.074 41.85 236.074 42.324C236.074 42.7979 236.149 43.238 236.3 43.6443C236.451 44.0505 236.683 44.3783 236.997 44.6276C237.311 44.8769 237.711 45.0015 238.197 45.0015Z" fill="#206BB0"/>
<path d="M247.45 38.7416V39.7572H244.163V45.8325H243.073V38.7416H247.45Z" fill="#206BB0"/>
<path d="M251.553 45.9802C250.912 45.9802 250.351 45.8279 249.868 45.5232C249.387 45.2185 249.012 44.7922 248.741 44.2444C248.473 43.6966 248.34 43.0564 248.34 42.324C248.34 41.5853 248.473 40.9405 248.741 40.3896C249.012 39.8387 249.387 39.411 249.868 39.1063C250.351 38.8016 250.912 38.6492 251.553 38.6492C252.193 38.6492 252.753 38.8016 253.233 39.1063C253.716 39.411 254.092 39.8387 254.359 40.3896C254.63 40.9405 254.766 41.5853 254.766 42.324C254.766 43.0564 254.63 43.6966 254.359 44.2444C254.092 44.7922 253.716 45.2185 253.233 45.5232C252.753 45.8279 252.193 45.9802 251.553 45.9802ZM251.553 45.0015C252.039 45.0015 252.439 44.8769 252.753 44.6276C253.067 44.3783 253.299 44.0505 253.45 43.6443C253.601 43.238 253.676 42.7979 253.676 42.324C253.676 41.85 253.601 41.4084 253.45 40.999C253.299 40.5897 253.067 40.2588 252.753 40.0065C252.439 39.7541 252.039 39.6279 251.553 39.6279C251.066 39.6279 250.666 39.7541 250.352 40.0065C250.038 40.2588 249.806 40.5897 249.655 40.999C249.504 41.4084 249.429 41.85 249.429 42.324C249.429 42.7979 249.504 43.238 249.655 43.6443C249.806 44.0505 250.038 44.3783 250.352 44.6276C250.666 44.8769 251.066 45.0015 251.553 45.0015Z" fill="#206BB0"/>
<path d="M260.898 38.7416L262.596 41.6407L264.295 38.7416H265.551L263.261 42.287L265.551 45.8325H264.295L262.596 43.0811L260.898 45.8325H259.642L261.895 42.287L259.642 38.7416H260.898Z" fill="#206BB0"/>
<path d="M269.694 45.9802C269.054 45.9802 268.492 45.8279 268.009 45.5232C267.529 45.2185 267.154 44.7922 266.883 44.2444C266.615 43.6966 266.481 43.0564 266.481 42.324C266.481 41.5853 266.615 40.9405 266.883 40.3896C267.154 39.8387 267.529 39.411 268.009 39.1063C268.492 38.8016 269.054 38.6492 269.694 38.6492C270.334 38.6492 270.895 38.8016 271.375 39.1063C271.858 39.411 272.233 39.8387 272.501 40.3896C272.772 40.9405 272.907 41.5853 272.907 42.324C272.907 43.0564 272.772 43.6966 272.501 44.2444C272.233 44.7922 271.858 45.2185 271.375 45.5232C270.895 45.8279 270.334 45.9802 269.694 45.9802ZM269.694 45.0015C270.18 45.0015 270.581 44.8769 270.895 44.6276C271.208 44.3783 271.441 44.0505 271.592 43.6443C271.742 43.238 271.818 42.7979 271.818 42.324C271.818 41.85 271.742 41.4084 271.592 40.999C271.441 40.5897 271.208 40.2588 270.895 40.0065C270.581 39.7541 270.18 39.6279 269.694 39.6279C269.208 39.6279 268.808 39.7541 268.494 40.0065C268.18 40.2588 267.948 40.5897 267.797 40.999C267.646 41.4084 267.571 41.85 267.571 42.324C267.571 42.7979 267.646 43.238 267.797 43.6443C267.948 44.0505 268.18 44.3783 268.494 44.6276C268.808 44.8769 269.208 45.0015 269.694 45.0015Z" fill="#206BB0"/>
<path d="M273.943 45.8325V44.8169H274.201C274.413 44.8169 274.59 44.7753 274.732 44.6922C274.874 44.606 274.987 44.4568 275.074 44.2444C275.163 44.029 275.231 43.7304 275.277 43.3488C275.326 42.9641 275.361 42.4748 275.383 41.8808L275.512 38.7416H280.239V45.8325H279.15V39.7572H276.546L276.435 42.287C276.411 42.8687 276.358 43.3811 276.278 43.8243C276.202 44.2644 276.083 44.6337 275.923 44.9323C275.766 45.2308 275.557 45.4555 275.295 45.6063C275.034 45.7571 274.706 45.8325 274.312 45.8325H273.943Z" fill="#206BB0"/>
<path d="M285.119 45.9802C284.479 45.9802 283.917 45.8279 283.434 45.5232C282.954 45.2185 282.578 44.7922 282.308 44.2444C282.04 43.6966 281.906 43.0564 281.906 42.324C281.906 41.5853 282.04 40.9405 282.308 40.3896C282.578 39.8387 282.954 39.411 283.434 39.1063C283.917 38.8016 284.479 38.6492 285.119 38.6492C285.759 38.6492 286.319 38.8016 286.799 39.1063C287.283 39.411 287.658 39.8387 287.926 40.3896C288.197 40.9405 288.332 41.5853 288.332 42.324C288.332 43.0564 288.197 43.6966 287.926 44.2444C287.658 44.7922 287.283 45.2185 286.799 45.5232C286.319 45.8279 285.759 45.9802 285.119 45.9802ZM285.119 45.0015C285.605 45.0015 286.005 44.8769 286.319 44.6276C286.633 44.3783 286.866 44.0505 287.016 43.6443C287.167 43.238 287.243 42.7979 287.243 42.324C287.243 41.85 287.167 41.4084 287.016 40.999C286.866 40.5897 286.633 40.2588 286.319 40.0065C286.005 39.7541 285.605 39.6279 285.119 39.6279C284.633 39.6279 284.233 39.7541 283.919 40.0065C283.605 40.2588 283.372 40.5897 283.222 40.999C283.071 41.4084 282.995 41.85 282.995 42.324C282.995 42.7979 283.071 43.238 283.222 43.6443C283.372 44.0505 283.605 44.3783 283.919 44.6276C284.233 44.8769 284.633 45.0015 285.119 45.0015Z" fill="#206BB0"/>
<path d="M289.238 47.8637V44.8169H289.829C289.974 44.666 290.098 44.5029 290.203 44.3275C290.308 44.1521 290.398 43.9443 290.475 43.7043C290.555 43.4611 290.623 43.1657 290.678 42.8179C290.734 42.4671 290.783 42.0439 290.826 41.5484L291.066 38.7416H295.572V44.8169H296.661V47.8637H295.572V45.8325H290.328V47.8637H289.238ZM291.066 44.8169H294.482V39.7572H292.082L291.897 41.5484C291.82 42.2901 291.725 42.9379 291.611 43.4919C291.497 44.0459 291.315 44.4875 291.066 44.8169Z" fill="#206BB0"/>
<path d="M300.194 45.9987C299.745 45.9987 299.337 45.914 298.971 45.7448C298.605 45.5724 298.314 45.3247 298.098 45.0015C297.883 44.6753 297.775 44.2813 297.775 43.8197C297.775 43.4134 297.855 43.0841 298.015 42.8318C298.175 42.5763 298.389 42.3763 298.657 42.2316C298.925 42.087 299.22 41.9793 299.543 41.9085C299.869 41.8346 300.197 41.7761 300.527 41.733C300.957 41.6776 301.307 41.6361 301.574 41.6084C301.845 41.5776 302.042 41.5268 302.165 41.4561C302.292 41.3853 302.355 41.2622 302.355 41.0867V41.0498C302.355 40.5943 302.23 40.2404 301.981 39.988C301.734 39.7356 301.361 39.6095 300.859 39.6095C300.339 39.6095 299.931 39.7233 299.636 39.9511C299.34 40.1788 299.132 40.422 299.012 40.6805L297.978 40.3112C298.163 39.8803 298.409 39.5448 298.717 39.3048C299.028 39.0616 299.366 38.8924 299.732 38.797C300.102 38.6985 300.465 38.6492 300.822 38.6492C301.05 38.6492 301.311 38.6769 301.607 38.7323C301.905 38.7847 302.193 38.8939 302.47 39.0601C302.75 39.2263 302.982 39.4771 303.167 39.8126C303.352 40.1481 303.444 40.5974 303.444 41.1606V45.8325H302.355V44.8722H302.299C302.225 45.0261 302.102 45.1908 301.93 45.3662C301.758 45.5416 301.528 45.6909 301.242 45.814C300.956 45.9371 300.607 45.9987 300.194 45.9987ZM300.36 45.02C300.791 45.02 301.154 44.9353 301.45 44.7661C301.748 44.5968 301.973 44.3783 302.124 44.1105C302.278 43.8428 302.355 43.5612 302.355 43.2657V42.2686C302.308 42.324 302.207 42.3747 302.05 42.4209C301.896 42.464 301.718 42.5025 301.514 42.5363C301.314 42.5671 301.119 42.5948 300.928 42.6194C300.74 42.641 300.588 42.6594 300.471 42.6748C300.188 42.7117 299.923 42.7718 299.677 42.8548C299.434 42.9349 299.237 43.0564 299.086 43.2195C298.938 43.3796 298.865 43.5981 298.865 43.8751C298.865 44.2536 299.005 44.5399 299.285 44.7338C299.568 44.9246 299.926 45.02 300.36 45.02Z" fill="#206BB0"/>
<path d="M11.5442 17.0439C29.3513 7.08928 37.3217 21.1917 39.081 29.4872C51.0901 22.3205 44.7413 -4.53495 20.7996 0.662875C1.64629 4.82113 -0.89831 25.2869 0.223558 35C3.22201 3.49804 22.0745 4.91564 31.1259 9.56219C18.0919 6.72701 12.6406 13.3687 11.5442 17.0439Z" fill="#E4E4E4"/>
<path d="M53.417 20.041C50.5694 40.5168 34.4965 38.7645 26.8161 35.3289C25.2571 49.4043 50.5171 59.9903 60.8734 37.2763C69.1585 19.1051 54.3802 4.9765 45.9554 0.183616C69.2591 21.1771 56.7101 35.8212 47.5226 40.519C57.6779 31.4858 55.6835 23.1032 53.417 20.041Z" fill="#2062B0"/>
<path d="M31.9546 53.4404C14.3281 42.6389 22.3643 28.6094 28.5858 22.9449C16.3095 15.8849 -3.49815 34.8002 13.1756 53.3788C26.5147 68.2417 45.3756 60.35 53.1387 54.5464C24.5754 67.505 16.1749 50.1453 15.545 39.8457C19.7609 52.7668 28.2414 54.2926 31.9546 53.4404Z" fill="#E23529"/>
</svg>
