<svg width="50" height="50" viewBox="0 0 50 50" fill="none" xmlns="http://www.w3.org/2000/svg">
<path fill-rule="evenodd" clip-rule="evenodd" d="M41.6667 40.6257C41.6667 41.2004 41.2009 41.6667 40.625 41.6667H27.0833H20.8333H16.311C16.5413 41.0151 16.6667 40.3138 16.6667 39.5834V9.0278C16.6667 8.64427 16.9776 8.33335 17.3611 8.33335H40.625C41.2003 8.33335 41.6667 8.79972 41.6667 9.37502V25.4762V40.6257ZM40.625 45.8334H27.0833H20.8333H10.4167C6.96488 45.8334 4.16666 43.0351 4.16666 39.5834V14.8721C4.16666 13.562 5.2287 12.5 6.53877 12.5L10.4167 12.5H12.5V9.0278C12.5 6.34308 14.6764 4.16669 17.3611 4.16669H40.625C43.5015 4.16669 45.8333 6.49854 45.8333 9.37502V25.4762V40.6257C45.8333 43.5028 43.5009 45.8334 40.625 45.8334ZM12.5 16.6667L11.4583 16.6667H8.33332V39.5834C8.33332 40.7339 9.26606 41.6667 10.4167 41.6667C11.5672 41.6667 12.5 40.7339 12.5 39.5834V16.6667ZM35.4167 22.9167C36.5672 22.9167 37.5 23.8494 37.5 25C37.5 26.1506 36.5672 27.0834 35.4167 27.0834H22.9167C21.7661 27.0834 20.8333 26.1506 20.8333 25C20.8333 23.8494 21.7661 22.9167 22.9167 22.9167H35.4167ZM37.5 33.3334C37.5 32.1828 36.5672 31.25 35.4167 31.25H22.9167C21.7661 31.25 20.8333 32.1828 20.8333 33.3334C20.8333 34.4839 21.7661 35.4167 22.9167 35.4167H35.4167C36.5672 35.4167 37.5 34.4839 37.5 33.3334ZM35.4167 14.5834C36.5672 14.5834 37.5 15.5161 37.5 16.6667C37.5 17.8173 36.5672 18.75 35.4167 18.75H22.9167C21.7661 18.75 20.8333 17.8173 20.8333 16.6667C20.8333 15.5161 21.7661 14.5834 22.9167 14.5834H35.4167Z" fill="#206BB0"/>
</svg>
