<svg width="50" height="50" viewBox="0 0 50 50" fill="none" xmlns="http://www.w3.org/2000/svg">
<path fill-rule="evenodd" clip-rule="evenodd" d="M14.5833 6.25002C14.5833 5.09943 15.5161 4.16669 16.6667 4.16669C17.8173 4.16669 18.75 5.09943 18.75 6.25002V8.33335H31.25V6.25002C31.25 5.09943 32.1827 4.16669 33.3333 4.16669C34.4839 4.16669 35.4167 5.09943 35.4167 6.25002V8.33335H37.5C40.9518 8.33335 43.75 11.1316 43.75 14.5834V18.75V39.5834C43.75 43.0351 40.9518 45.8334 37.5 45.8334H12.5C9.04822 45.8334 6.25 43.0351 6.25 39.5834V18.75V14.5834C6.25 11.1316 9.04822 8.33335 12.5 8.33335H14.5833V6.25002ZM16.6667 12.5H33.3333H37.5C38.6506 12.5 39.5833 13.4328 39.5833 14.5834V16.6667H10.4167V14.5834C10.4167 13.4328 11.3494 12.5 12.5 12.5H16.6667ZM10.4167 20.8334V39.5834C10.4167 40.7339 11.3494 41.6667 12.5 41.6667H37.5C38.6506 41.6667 39.5833 40.7339 39.5833 39.5834V20.8334H10.4167ZM30.85 28.3108C31.5279 27.3811 31.3238 26.0779 30.3941 25.4C29.4644 24.7221 28.1612 24.9262 27.4833 25.8559L23.0221 31.9742L21.4251 29.9569C20.7109 29.0548 19.4007 28.9024 18.4985 29.6166C17.5964 30.3308 17.4441 31.641 18.1582 32.5431L21.4568 36.7098C21.861 37.2203 22.4806 37.5125 23.1315 37.4996C23.7825 37.4867 24.39 37.1702 24.7736 36.6441L30.85 28.3108Z" fill="#206BB0"/>
</svg>
