<svg width="50" height="50" viewBox="0 0 50 50" fill="none" xmlns="http://www.w3.org/2000/svg">
<path fill-rule="evenodd" clip-rule="evenodd" d="M6.25 10.4913C6.25 6.99833 9.04822 4.16669 12.5 4.16669H37.5C40.9518 4.16669 43.75 6.99833 43.75 10.4913V33.184C43.75 35.5797 42.4125 37.7696 40.2951 38.841L27.7951 45.1656C26.0355 46.0559 23.9645 46.0559 22.2049 45.1656L9.70491 38.841C7.58751 37.7696 6.25 35.5796 6.25 33.184V10.4913ZM12.5 8.38312C11.3494 8.38312 10.4167 9.327 10.4167 10.4913V33.184C10.4167 33.9826 10.8625 34.7126 11.5683 35.0697L16.6667 37.6493V8.38312H12.5ZM24.0683 41.3943L20.8333 39.7575V8.38312H29.1667V39.7575L25.9317 41.3943C25.3452 41.6911 24.6548 41.6911 24.0683 41.3943ZM33.3333 37.6493L38.4317 35.0697C39.1375 34.7126 39.5833 33.9826 39.5833 33.184V10.4913C39.5833 9.327 38.6506 8.38312 37.5 8.38312H33.3333V37.6493Z" fill="#206BB0"/>
</svg>
