<svg width="50" height="50" viewBox="0 0 50 50" fill="none" xmlns="http://www.w3.org/2000/svg">
<path fill-rule="evenodd" clip-rule="evenodd" d="M19.7917 4.16669C18.8615 4.16669 18.044 4.78331 17.7885 5.67768L16.2043 11.2223L10.7113 10.4376C9.77877 10.3044 8.87286 10.8135 8.50179 11.6794L5.37679 18.971C5.04122 19.754 5.21616 20.6625 5.81854 21.2648L9.55373 25L5.81854 28.7352C5.15422 29.3995 5.01672 30.4263 5.48284 31.242L9.6495 38.5336C10.0822 39.2908 10.9406 39.6984 11.8008 39.555L16.2161 38.8191L17.7885 44.3224C18.044 45.2167 18.8615 45.8334 19.7917 45.8334H30.2083C31.1385 45.8334 31.956 45.2167 32.2115 44.3224L33.7839 38.8191L38.1992 39.555C39.0594 39.6984 39.9179 39.2908 40.3505 38.5336L44.5172 31.242C44.9833 30.4263 44.8458 29.3995 44.1815 28.7352L40.4463 25L44.1815 21.2648C44.7839 20.6625 44.9588 19.754 44.6232 18.971L41.4982 11.6794C41.1272 10.8135 40.2212 10.3044 39.2887 10.4376L33.7957 11.2223L32.2115 5.67768C31.956 4.78331 31.1385 4.16669 30.2083 4.16669H19.7917ZM19.7115 14.114L21.3631 8.33335H28.6369L30.2885 14.114C30.5745 15.1151 31.5556 15.7513 32.5863 15.6041L38.2974 14.7882L40.2378 19.3159L36.0269 23.5269C35.2133 24.3405 35.2133 25.6596 36.0269 26.4732L40.11 30.5563L37.4528 35.2065L32.6342 34.4034C31.589 34.2292 30.5796 34.8672 30.2885 35.886L28.6369 41.6667H21.3631L19.7115 35.886C19.4204 34.8672 18.411 34.2292 17.3658 34.4034L12.5472 35.2065L9.88999 30.5563L13.9731 26.4732C14.7867 25.6596 14.7867 24.3405 13.9731 23.5269L9.76218 19.3159L11.7026 14.7882L17.4137 15.6041C18.4444 15.7513 19.4255 15.1151 19.7115 14.114ZM25 29.1667C22.6988 29.1667 20.8333 27.3012 20.8333 25C20.8333 22.6988 22.6988 20.8334 25 20.8334C27.3012 20.8334 29.1667 22.6988 29.1667 25C29.1667 27.3012 27.3012 29.1667 25 29.1667ZM16.6667 25C16.6667 20.3976 20.3976 16.6667 25 16.6667C29.6024 16.6667 33.3333 20.3976 33.3333 25C33.3333 29.6024 29.6024 33.3334 25 33.3334C20.3976 33.3334 16.6667 29.6024 16.6667 25Z" fill="#206BB0"/>
</svg>
