<svg width="50" height="50" viewBox="0 0 50 50" fill="none" xmlns="http://www.w3.org/2000/svg">
<path fill-rule="evenodd" clip-rule="evenodd" d="M12.5 18.75H16.6667H20.8333L29.1667 18.75H33.3333L37.5 18.75H41.6667V22.9167L33.3333 22.9167H16.6667H8.33333L8.33333 18.75H12.5ZM31.25 27.0833V29.1667C31.25 30.3173 32.1827 31.25 33.3333 31.25C34.4839 31.25 35.4167 30.3173 35.4167 29.1667V27.0833L41.6667 27.0833V35.4167V39.5833H37.5L12.5 39.5833H8.33333L8.33333 35.4167L8.33333 27.0833L14.5833 27.0833V29.1667C14.5833 30.3173 15.5161 31.25 16.6667 31.25C17.8173 31.25 18.75 30.3173 18.75 29.1667V27.0833L31.25 27.0833ZM41.6667 14.5833L33.3333 14.5833V12.5C33.3333 9.04822 30.5351 6.25 27.0833 6.25H22.9167C19.4649 6.25 16.6667 9.04822 16.6667 12.5V14.5833H8.33333C6.03214 14.5833 4.16666 16.4488 4.16666 18.75V39.5833C4.16666 41.8845 6.03214 43.75 8.33333 43.75L41.6667 43.75C43.9679 43.75 45.8333 41.8845 45.8333 39.5833V18.75C45.8333 16.4488 43.9678 14.5833 41.6667 14.5833ZM27.0833 14.5833H29.1667V12.5C29.1667 11.3499 28.2347 10.4175 27.0848 10.4167L27.0833 10.4167L22.9167 10.4167L22.9152 10.4167C21.7653 10.4175 20.8333 11.3499 20.8333 12.5V14.5833H22.9167L25 14.5833H27.0833Z" fill="#206BB0"/>
</svg>
