<svg width="16" height="16" viewBox="0 0 16 16" fill="none" xmlns="http://www.w3.org/2000/svg">
<path fill-rule="evenodd" clip-rule="evenodd" d="M4.66634 1.33337C3.92996 1.33337 3.33301 1.93033 3.33301 2.66671V4.66671H2.66634C1.92996 4.66671 1.33301 5.26366 1.33301 6.00004V10.6667C1.33301 11.4031 1.92996 12 2.66634 12H3.99967V13.3334C3.99967 14.0698 4.59663 14.6667 5.33301 14.6667H10.6663C11.4027 14.6667 11.9997 14.0698 11.9997 13.3334V12H13.333C14.0694 12 14.6663 11.4031 14.6663 10.6667V6.00004C14.6663 5.26366 14.0694 4.66671 13.333 4.66671H12.6663V2.66671C12.6663 1.93033 12.0694 1.33337 11.333 1.33337H4.66634ZM11.333 4.66671L11.333 2.66671H4.66634V4.66671H11.333ZM11.9997 10.6667H13.333V6.00004H2.66634V10.6667H3.99967V10C3.99967 9.26366 4.59663 8.66671 5.33301 8.66671H10.6663C11.4027 8.66671 11.9997 9.26366 11.9997 10V10.6667ZM4.66634 6.66671C4.29815 6.66671 3.99967 6.96518 3.99967 7.33337C3.99967 7.70156 4.29815 8.00004 4.66634 8.00004H5.99967C6.36786 8.00004 6.66634 7.70156 6.66634 7.33337C6.66634 6.96518 6.36786 6.66671 5.99967 6.66671H4.66634ZM9.33301 10H10.6663V11.3334V12V13.3334H9.33301H6.66634H5.33301V12V11.3334V10H6.66634H9.33301Z" fill="#8E8E8E"/>
</svg>
