<svg width="16" height="16" viewBox="0 0 16 16" fill="none" xmlns="http://www.w3.org/2000/svg">
<path fill-rule="evenodd" clip-rule="evenodd" d="M11.9997 3.33337C11.9997 3.70156 12.2982 4.00004 12.6663 4.00004C13.0345 4.00004 13.333 3.70156 13.333 3.33337C13.333 2.96518 13.0345 2.66671 12.6663 2.66671C12.2982 2.66671 11.9997 2.96518 11.9997 3.33337ZM12.6663 1.33337C11.5618 1.33337 10.6663 2.2288 10.6663 3.33337C10.6663 3.64214 10.7363 3.93456 10.8613 4.19565L9.83793 5.21897C9.31098 4.86996 8.67906 4.66671 7.99967 4.66671C7.32029 4.66671 6.68837 4.86996 6.16141 5.21897L5.13809 4.19565C5.26304 3.93456 5.33301 3.64214 5.33301 3.33337C5.33301 2.2288 4.43758 1.33337 3.33301 1.33337C2.22844 1.33337 1.33301 2.2288 1.33301 3.33337C1.33301 4.43794 2.22844 5.33337 3.33301 5.33337C3.64177 5.33337 3.93419 5.26341 4.19528 5.13846L5.21861 6.16178C4.86959 6.68874 4.66634 7.32065 4.66634 8.00004C4.66634 8.67943 4.86959 9.31135 5.21861 9.8383L4.19528 10.8616C3.93419 10.7367 3.64177 10.6667 3.33301 10.6667C2.22844 10.6667 1.33301 11.5621 1.33301 12.6667C1.33301 13.7713 2.22844 14.6667 3.33301 14.6667C4.43758 14.6667 5.33301 13.7713 5.33301 12.6667C5.33301 12.3579 5.26304 12.0655 5.13809 11.8044L6.16141 10.7811C6.68837 11.1301 7.32029 11.3334 7.99967 11.3334C8.67906 11.3334 9.31098 11.1301 9.83793 10.7811L10.8613 11.8044C10.7363 12.0655 10.6663 12.3579 10.6663 12.6667C10.6663 13.7713 11.5618 14.6667 12.6663 14.6667C13.7709 14.6667 14.6663 13.7713 14.6663 12.6667C14.6663 11.5621 13.7709 10.6667 12.6663 10.6667C12.3576 10.6667 12.0652 10.7367 11.8041 10.8616L10.7807 9.8383C11.1298 9.31135 11.333 8.67943 11.333 8.00004C11.333 7.32065 11.1298 6.68874 10.7807 6.16178L11.8041 5.13846C12.0652 5.26341 12.3576 5.33337 12.6663 5.33337C13.7709 5.33337 14.6663 4.43794 14.6663 3.33337C14.6663 2.2288 13.7709 1.33337 12.6663 1.33337ZM5.99967 8.00004C5.99967 9.10461 6.8951 10 7.99967 10C9.10424 10 9.99967 9.10461 9.99967 8.00004C9.99967 6.89547 9.10424 6.00004 7.99967 6.00004C6.8951 6.00004 5.99967 6.89547 5.99967 8.00004ZM12.6663 13.3334C12.2982 13.3334 11.9997 13.0349 11.9997 12.6667C11.9997 12.2985 12.2982 12 12.6663 12C13.0345 12 13.333 12.2985 13.333 12.6667C13.333 13.0349 13.0345 13.3334 12.6663 13.3334ZM2.66634 12.6667C2.66634 13.0349 2.96482 13.3334 3.33301 13.3334C3.7012 13.3334 3.99967 13.0349 3.99967 12.6667C3.99967 12.2985 3.7012 12 3.33301 12C2.96482 12 2.66634 12.2985 2.66634 12.6667ZM3.33301 4.00004C2.96482 4.00004 2.66634 3.70156 2.66634 3.33337C2.66634 2.96518 2.96482 2.66671 3.33301 2.66671C3.7012 2.66671 3.99967 2.96518 3.99967 3.33337C3.99967 3.70156 3.7012 4.00004 3.33301 4.00004Z" fill="#8E8E8E"/>
</svg>
