<svg width="0" height="0" class="hidden">
  <symbol fill="none" xmlns="http://www.w3.org/2000/svg" viewBox="0 0 10 16" id="arrow">
    <path d="M1.07104 1L8.14211 8.07107L1.07104 15.1421" stroke="#206BB0" stroke-width="2"></path>
  </symbol>
  <symbol fill="none" xmlns="http://www.w3.org/2000/svg" viewBox="0 0 32 32" id="vk">
    <path d="M32 16C32 7.16344 24.8366 0 16 0C7.16344 0 0 7.16344 0 16C0 24.8366 7.16344 32 16 32C24.8366 32 32 24.8366 32 16Z" fill="white"></path>
    <path d="M8 15.6667C8 12.0526 8 10.2455 9.12276 9.12276C10.2455 8 12.0526 8 15.6667 8H16.3333C19.9474 8 21.7545 8 22.8772 9.12276C24 10.2455 24 12.0526 24 15.6667V16.3333C24 19.9474 24 21.7545 22.8772 22.8772C21.7545 24 19.9474 24 16.3333 24H15.6667C12.0526 24 10.2455 24 9.12276 22.8772C8 21.7545 8 19.9474 8 16.3333L8 15.6667Z" fill="#2787F5"></path>
    <path fill-rule="evenodd" clip-rule="evenodd" d="M12.3336 13H11.1667C10.8333 13 10.7666 13.1569 10.7666 13.3299C10.7666 13.639 11.1622 15.1716 12.6087 17.1986C13.573 18.5829 14.9316 19.3333 16.1679 19.3333C16.9096 19.3333 17.0014 19.1667 17.0014 18.8796V17.8333C17.0014 17.5 17.0717 17.4335 17.3065 17.4335C17.4796 17.4335 17.7763 17.52 18.4687 18.1874C19.2599 18.9785 19.3903 19.3333 19.8354 19.3333H21.0023C21.3357 19.3333 21.5024 19.1667 21.4063 18.8378C21.301 18.51 20.9233 18.0343 20.422 17.4706C20.15 17.1492 19.742 16.8031 19.6184 16.6301C19.4453 16.4076 19.4948 16.3087 19.6184 16.111C19.6184 16.111 21.0401 14.1086 21.1885 13.4289C21.2627 13.1816 21.1885 13 20.8356 13H19.6687C19.372 13 19.2352 13.1569 19.161 13.3299C19.161 13.3299 18.5676 14.7761 17.7269 15.7154C17.4549 15.9873 17.3313 16.0739 17.1829 16.0739C17.1087 16.0739 17.0014 15.9873 17.0014 15.7402V13.4289C17.0014 13.1322 16.9153 13 16.668 13H14.8342C14.6488 13 14.5373 13.1377 14.5373 13.2682C14.5373 13.5494 14.9576 13.6142 15.0009 14.4053V16.1233C15.0009 16.5 14.9329 16.5683 14.7845 16.5683C14.3889 16.5683 13.4266 15.1157 12.8559 13.4536C12.7441 13.1305 12.6319 13 12.3336 13Z" fill="white"></path>
  </symbol>
  <symbol fill="none" xmlns="http://www.w3.org/2000/svg" viewBox="0 0 24 24" id="footer-message">
    <path fill-rule="evenodd" clip-rule="evenodd" d="M5 4C3.34315 4 2 5.34315 2 7V17C2 18.6569 3.34315 20 5 20H19C20.6569 20 22 18.6569 22 17V7C22 5.34315 20.6569 4 19 4H5ZM4.09132 6.58194C4.24961 6.23843 4.59696 6 5 6H19C19.403 6 19.7504 6.23843 19.9087 6.58194L12.6139 12.2556C12.2528 12.5365 11.7472 12.5365 11.3861 12.2556L4.09132 6.58194ZM4 9.04464V14.865L7.61261 11.8544L4 9.04464ZM4.0829 17.3993C4.23705 17.7529 4.58966 18 5 18H19C19.4103 18 19.763 17.7529 19.9171 17.3993L14.7715 13.1113L13.8418 13.8343C12.7585 14.6769 11.2415 14.6769 10.1582 13.8343L9.22853 13.1113L4.0829 17.3993ZM20 14.865V9.04464L16.3874 11.8544L20 14.865Z" fill="#E2CE19"></path>
  </symbol>
  <symbol fill="none" xmlns="http://www.w3.org/2000/svg" viewBox="0 0 32 32" id="youtube">
    <path d="M0 16C0 24.8366 7.16344 32 16 32C24.8366 32 32 24.8366 32 16C32 7.16344 24.8366 0 16 0C7.16344 0 0 7.16344 0 16Z" fill="#FF0000"></path>
    <path d="M23.6 12.0999C23.4 11.3999 22.9 10.8999 22.2 10.6999C21 10.3999 15.9 10.3999 15.9 10.3999C15.9 10.3999 10.9 10.3999 9.60001 10.6999C8.90001 10.8999 8.4 11.3999 8.2 12.0999C8 13.3999 8 15.9999 8 15.9999C8 15.9999 8 18.5999 8.3 19.8999C8.5 20.5999 9 21.0999 9.7 21.2999C10.9 21.5999 16 21.5999 16 21.5999C16 21.5999 21 21.5999 22.3 21.2999C23 21.0999 23.5 20.5999 23.7 19.8999C24 18.5999 24 15.9999 24 15.9999C24 15.9999 24 13.3999 23.6 12.0999ZM14.4 18.3999V13.5999L18.6 15.9999L14.4 18.3999Z" fill="white"></path>
  </symbol>
  <symbol fill="none" xmlns="http://www.w3.org/2000/svg" viewBox="0 0 24 24" id="footer-phone">
    <path fill-rule="evenodd" clip-rule="evenodd" d="M6.30377 3.99792C6.30379 3.99791 6.30404 3.99817 6.30444 3.99878L6.30377 3.99792ZM6.34683 4.06621L8.3541 7.26003C8.11154 7.48999 7.84697 7.71777 7.56223 7.96291C7.3175 8.17359 7.05788 8.39711 6.78454 8.64585C6.10705 9.26238 5.97619 10.2539 6.41466 11.0256C8.73326 15.1062 11.8957 16.963 13.3107 17.6296C14.1632 18.0312 15.0894 17.7143 15.605 17.058L16.994 15.2899C16.9949 15.2888 16.9948 15.2891 16.9943 15.2894C16.9942 15.2895 16.9952 15.2889 16.9973 15.2885C16.9994 15.2882 17.0015 15.2882 17.0032 15.2885C17.0045 15.2888 17.0062 15.2892 17.0091 15.291C17.8185 15.7906 18.9477 16.4694 19.985 17.0442C19.7987 18.1688 19.3708 18.824 18.8989 19.2246C18.4035 19.6451 17.7628 19.8665 17.0482 19.9464C15.6213 20.106 14.1728 19.6731 13.8516 19.5677C13.4971 19.3864 11.5536 18.3634 9.47717 16.7056C7.33609 14.9961 5.18918 12.7178 4.36809 10.1049C3.768 8.19529 3.99428 6.85151 4.46593 5.92459C4.92188 5.02852 5.65972 4.42034 6.34683 4.06621ZM5.62071 2.17596C6.56664 1.72731 7.54477 2.19509 8.00037 2.92002L10.1003 6.26123C10.5248 6.9367 10.5539 7.92415 9.86374 8.60058C9.56796 8.89048 9.15645 9.24679 8.77351 9.57836C8.56331 9.76036 8.36173 9.93491 8.19262 10.0869C10.1881 13.5617 12.856 15.1693 14.0694 15.7572L15.4201 14.0378C16.0579 13.226 17.1934 13.0363 18.0581 13.57C18.858 14.0636 19.9638 14.7281 20.966 15.2829C21.6343 15.653 22.1124 16.4244 21.977 17.2954C21.7337 18.8596 21.0982 19.999 20.1926 20.7678C19.3022 21.5237 18.2415 21.8444 17.2698 21.953C15.3585 22.1668 13.5305 21.588 13.1967 21.4763C13.1122 21.4479 13.042 21.4181 12.9666 21.3798C12.6083 21.1977 10.4963 20.0965 8.23016 18.2872C5.98759 16.4967 3.45851 13.9066 2.45514 10.7137C1.71811 8.36823 1.93614 6.46651 2.68011 5.0044C3.41105 3.56791 4.59475 2.66257 5.62071 2.17596Z" fill="#E2CE19"></path>
  </symbol>
  <symbol fill="none" xmlns="http://www.w3.org/2000/svg" viewBox="0 0 50 50" id="plus-7">
    <path fill-rule="evenodd" clip-rule="evenodd" d="M12.5 18.75H16.6667H20.8333L29.1667 18.75H33.3333L37.5 18.75H41.6667V22.9167L33.3333 22.9167H16.6667H8.33333L8.33333 18.75H12.5ZM31.25 27.0833V29.1667C31.25 30.3173 32.1827 31.25 33.3333 31.25C34.4839 31.25 35.4167 30.3173 35.4167 29.1667V27.0833L41.6667 27.0833V35.4167V39.5833H37.5L12.5 39.5833H8.33333L8.33333 35.4167L8.33333 27.0833L14.5833 27.0833V29.1667C14.5833 30.3173 15.5161 31.25 16.6667 31.25C17.8173 31.25 18.75 30.3173 18.75 29.1667V27.0833L31.25 27.0833ZM41.6667 14.5833L33.3333 14.5833V12.5C33.3333 9.04822 30.5351 6.25 27.0833 6.25H22.9167C19.4649 6.25 16.6667 9.04822 16.6667 12.5V14.5833H8.33333C6.03214 14.5833 4.16666 16.4488 4.16666 18.75V39.5833C4.16666 41.8845 6.03214 43.75 8.33333 43.75L41.6667 43.75C43.9679 43.75 45.8333 41.8845 45.8333 39.5833V18.75C45.8333 16.4488 43.9678 14.5833 41.6667 14.5833ZM27.0833 14.5833H29.1667V12.5C29.1667 11.3499 28.2347 10.4175 27.0848 10.4167L27.0833 10.4167L22.9167 10.4167L22.9152 10.4167C21.7653 10.4175 20.8333 11.3499 20.8333 12.5V14.5833H22.9167L25 14.5833H27.0833Z" fill="#206BB0"></path>
  </symbol>
  <symbol fill="none" xmlns="http://www.w3.org/2000/svg" viewBox="0 0 24 24" id="locatsion">
    <path fill-rule="evenodd" clip-rule="evenodd" d="M16.5487 12.1637L12.0455 18.7203L7.50811 12.1855C6.76428 10.7087 6.68438 8.94769 7.29099 7.40024C9.04849 2.91683 14.9513 2.90133 16.7347 7.38581C17.3475 8.92687 17.2791 10.6851 16.5487 12.1637ZM18.1983 13.1099L13.1142 20.8423L13.1135 20.8438L13.0642 20.9436L12.5873 21.6568C12.3503 22.1366 11.713 22.1391 11.4723 21.6613L11.0438 20.9518L10.9937 20.8523L10.993 20.8509L5.86579 13.1451C4.85099 11.1302 4.74198 8.7277 5.56957 6.61652C7.96992 0.493191 16.0219 0.482173 18.4522 6.59367C19.2878 8.69494 19.1949 11.0925 18.1983 13.1099ZM12.9778 9.38272C12.9791 9.9386 12.5619 10.3903 12.0459 10.3915C11.5299 10.3928 11.1105 9.94318 11.1092 9.3873C11.1078 8.83142 11.525 8.37976 12.041 8.3785C12.557 8.37723 12.9764 8.82684 12.9778 9.38272ZM14.8463 9.37814C14.8504 11.0458 13.5988 12.4008 12.0509 12.4045C10.5029 12.4083 9.24469 11.0595 9.2406 9.39187C9.23652 7.72423 10.4881 6.36926 12.0361 6.36547C13.5841 6.36168 14.8423 7.7105 14.8463 9.37814Z" fill="#E2CE19"></path>
  </symbol>
  <symbol fill="none" xmlns="http://www.w3.org/2000/svg" viewBox="0 0 50 50" id="plus-8">
    <path fill-rule="evenodd" clip-rule="evenodd" d="M19.7917 4.16669C18.8615 4.16669 18.044 4.78331 17.7885 5.67768L16.2043 11.2223L10.7113 10.4376C9.77877 10.3044 8.87286 10.8135 8.50179 11.6794L5.37679 18.971C5.04122 19.754 5.21616 20.6625 5.81854 21.2648L9.55373 25L5.81854 28.7352C5.15422 29.3995 5.01672 30.4263 5.48284 31.242L9.6495 38.5336C10.0822 39.2908 10.9406 39.6984 11.8008 39.555L16.2161 38.8191L17.7885 44.3224C18.044 45.2167 18.8615 45.8334 19.7917 45.8334H30.2083C31.1385 45.8334 31.956 45.2167 32.2115 44.3224L33.7839 38.8191L38.1992 39.555C39.0594 39.6984 39.9179 39.2908 40.3505 38.5336L44.5172 31.242C44.9833 30.4263 44.8458 29.3995 44.1815 28.7352L40.4463 25L44.1815 21.2648C44.7839 20.6625 44.9588 19.754 44.6232 18.971L41.4982 11.6794C41.1272 10.8135 40.2212 10.3044 39.2887 10.4376L33.7957 11.2223L32.2115 5.67768C31.956 4.78331 31.1385 4.16669 30.2083 4.16669H19.7917ZM19.7115 14.114L21.3631 8.33335H28.6369L30.2885 14.114C30.5745 15.1151 31.5556 15.7513 32.5863 15.6041L38.2974 14.7882L40.2378 19.3159L36.0269 23.5269C35.2133 24.3405 35.2133 25.6596 36.0269 26.4732L40.11 30.5563L37.4528 35.2065L32.6342 34.4034C31.589 34.2292 30.5796 34.8672 30.2885 35.886L28.6369 41.6667H21.3631L19.7115 35.886C19.4204 34.8672 18.411 34.2292 17.3658 34.4034L12.5472 35.2065L9.88999 30.5563L13.9731 26.4732C14.7867 25.6596 14.7867 24.3405 13.9731 23.5269L9.76218 19.3159L11.7026 14.7882L17.4137 15.6041C18.4444 15.7513 19.4255 15.1151 19.7115 14.114ZM25 29.1667C22.6988 29.1667 20.8333 27.3012 20.8333 25C20.8333 22.6988 22.6988 20.8334 25 20.8334C27.3012 20.8334 29.1667 22.6988 29.1667 25C29.1667 27.3012 27.3012 29.1667 25 29.1667ZM16.6667 25C16.6667 20.3976 20.3976 16.6667 25 16.6667C29.6024 16.6667 33.3333 20.3976 33.3333 25C33.3333 29.6024 29.6024 33.3334 25 33.3334C20.3976 33.3334 16.6667 29.6024 16.6667 25Z" fill="#206BB0"></path>
  </symbol>
  <symbol fill="none" xmlns="http://www.w3.org/2000/svg" viewBox="0 0 50 50" id="plus-6">
    <path fill-rule="evenodd" clip-rule="evenodd" d="M14.5833 6.25002C14.5833 5.09943 15.5161 4.16669 16.6667 4.16669C17.8173 4.16669 18.75 5.09943 18.75 6.25002V8.33335H31.25V6.25002C31.25 5.09943 32.1827 4.16669 33.3333 4.16669C34.4839 4.16669 35.4167 5.09943 35.4167 6.25002V8.33335H37.5C40.9518 8.33335 43.75 11.1316 43.75 14.5834V18.75V39.5834C43.75 43.0351 40.9518 45.8334 37.5 45.8334H12.5C9.04822 45.8334 6.25 43.0351 6.25 39.5834V18.75V14.5834C6.25 11.1316 9.04822 8.33335 12.5 8.33335H14.5833V6.25002ZM16.6667 12.5H33.3333H37.5C38.6506 12.5 39.5833 13.4328 39.5833 14.5834V16.6667H10.4167V14.5834C10.4167 13.4328 11.3494 12.5 12.5 12.5H16.6667ZM10.4167 20.8334V39.5834C10.4167 40.7339 11.3494 41.6667 12.5 41.6667H37.5C38.6506 41.6667 39.5833 40.7339 39.5833 39.5834V20.8334H10.4167ZM30.85 28.3108C31.5279 27.3811 31.3238 26.0779 30.3941 25.4C29.4644 24.7221 28.1612 24.9262 27.4833 25.8559L23.0221 31.9742L21.4251 29.9569C20.7109 29.0548 19.4007 28.9024 18.4985 29.6166C17.5964 30.3308 17.4441 31.641 18.1582 32.5431L21.4568 36.7098C21.861 37.2203 22.4806 37.5125 23.1315 37.4996C23.7825 37.4867 24.39 37.1702 24.7736 36.6441L30.85 28.3108Z" fill="#206BB0"></path>
  </symbol>
  <symbol fill="none" xmlns="http://www.w3.org/2000/svg" viewBox="0 0 50 50" id="plus-5">
    <path fill-rule="evenodd" clip-rule="evenodd" d="M37.5 10.4167C37.5 11.5673 38.4328 12.5 39.5834 12.5C40.7339 12.5 41.6667 11.5673 41.6667 10.4167C41.6667 9.26609 40.7339 8.33335 39.5834 8.33335C38.4328 8.33335 37.5 9.26609 37.5 10.4167ZM39.5834 4.16669C36.1316 4.16669 33.3334 6.96491 33.3334 10.4167C33.3334 11.3816 33.552 12.2954 33.9425 13.1113L30.7446 16.3092C29.0978 15.2185 27.1231 14.5834 25 14.5834C22.8769 14.5834 20.9022 15.2185 19.2555 16.3092L16.0576 13.1113C16.448 12.2954 16.6667 11.3816 16.6667 10.4167C16.6667 6.96491 13.8685 4.16669 10.4167 4.16669C6.96491 4.16669 4.16669 6.96491 4.16669 10.4167C4.16669 13.8685 6.96491 16.6667 10.4167 16.6667C11.3816 16.6667 12.2954 16.448 13.1113 16.0576L16.3092 19.2555C15.2185 20.9022 14.5834 22.8769 14.5834 25C14.5834 27.1231 15.2185 29.0978 16.3092 30.7446L13.1113 33.9425C12.2954 33.552 11.3816 33.3334 10.4167 33.3334C6.96491 33.3334 4.16669 36.1316 4.16669 39.5834C4.16669 43.0351 6.96491 45.8334 10.4167 45.8334C13.8685 45.8334 16.6667 43.0351 16.6667 39.5834C16.6667 38.6185 16.448 37.7046 16.0576 36.8887L19.2555 33.6909C20.9022 34.7815 22.8769 35.4167 25 35.4167C27.1231 35.4167 29.0978 34.7815 30.7446 33.6909L33.9425 36.8887C33.552 37.7046 33.3334 38.6185 33.3334 39.5834C33.3334 43.0351 36.1316 45.8334 39.5834 45.8334C43.0351 45.8334 45.8334 43.0351 45.8334 39.5834C45.8334 36.1316 43.0351 33.3334 39.5834 33.3334C38.6185 33.3334 37.7046 33.552 36.8887 33.9425L33.6909 30.7446C34.7815 29.0978 35.4167 27.1231 35.4167 25C35.4167 22.8769 34.7815 20.9022 33.6909 19.2555L36.8887 16.0576C37.7046 16.448 38.6185 16.6667 39.5834 16.6667C43.0351 16.6667 45.8334 13.8685 45.8334 10.4167C45.8334 6.96491 43.0351 4.16669 39.5834 4.16669ZM18.75 25C18.75 28.4518 21.5482 31.25 25 31.25C28.4518 31.25 31.25 28.4518 31.25 25C31.25 21.5482 28.4518 18.75 25 18.75C21.5482 18.75 18.75 21.5482 18.75 25ZM39.5834 41.6667C38.4328 41.6667 37.5 40.7339 37.5 39.5834C37.5 38.4328 38.4328 37.5 39.5834 37.5C40.7339 37.5 41.6667 38.4328 41.6667 39.5834C41.6667 40.7339 40.7339 41.6667 39.5834 41.6667ZM8.33335 39.5834C8.33335 40.7339 9.26609 41.6667 10.4167 41.6667C11.5673 41.6667 12.5 40.7339 12.5 39.5834C12.5 38.4328 11.5673 37.5 10.4167 37.5C9.26609 37.5 8.33335 38.4328 8.33335 39.5834ZM10.4167 12.5C9.26609 12.5 8.33335 11.5673 8.33335 10.4167C8.33335 9.26609 9.26609 8.33335 10.4167 8.33335C11.5673 8.33335 12.5 9.26609 12.5 10.4167C12.5 11.5673 11.5673 12.5 10.4167 12.5Z" fill="#206BB0"></path>
  </symbol>
  <symbol fill="none" xmlns="http://www.w3.org/2000/svg" viewBox="0 0 50 50" id="plus-4">
    <path fill-rule="evenodd" clip-rule="evenodd" d="M41.6667 40.6257C41.6667 41.2004 41.2009 41.6667 40.625 41.6667H27.0833H20.8333H16.311C16.5413 41.0151 16.6667 40.3138 16.6667 39.5834V9.0278C16.6667 8.64427 16.9776 8.33335 17.3611 8.33335H40.625C41.2003 8.33335 41.6667 8.79972 41.6667 9.37502V25.4762V40.6257ZM40.625 45.8334H27.0833H20.8333H10.4167C6.96488 45.8334 4.16666 43.0351 4.16666 39.5834V14.8721C4.16666 13.562 5.2287 12.5 6.53877 12.5L10.4167 12.5H12.5V9.0278C12.5 6.34308 14.6764 4.16669 17.3611 4.16669H40.625C43.5015 4.16669 45.8333 6.49854 45.8333 9.37502V25.4762V40.6257C45.8333 43.5028 43.5009 45.8334 40.625 45.8334ZM12.5 16.6667L11.4583 16.6667H8.33332V39.5834C8.33332 40.7339 9.26606 41.6667 10.4167 41.6667C11.5672 41.6667 12.5 40.7339 12.5 39.5834V16.6667ZM35.4167 22.9167C36.5672 22.9167 37.5 23.8494 37.5 25C37.5 26.1506 36.5672 27.0834 35.4167 27.0834H22.9167C21.7661 27.0834 20.8333 26.1506 20.8333 25C20.8333 23.8494 21.7661 22.9167 22.9167 22.9167H35.4167ZM37.5 33.3334C37.5 32.1828 36.5672 31.25 35.4167 31.25H22.9167C21.7661 31.25 20.8333 32.1828 20.8333 33.3334C20.8333 34.4839 21.7661 35.4167 22.9167 35.4167H35.4167C36.5672 35.4167 37.5 34.4839 37.5 33.3334ZM35.4167 14.5834C36.5672 14.5834 37.5 15.5161 37.5 16.6667C37.5 17.8173 36.5672 18.75 35.4167 18.75H22.9167C21.7661 18.75 20.8333 17.8173 20.8333 16.6667C20.8333 15.5161 21.7661 14.5834 22.9167 14.5834H35.4167Z" fill="#206BB0"></path>
  </symbol>
  <symbol fill="none" xmlns="http://www.w3.org/2000/svg" viewBox="0 0 50 50" id="plus-3">
    <path fill-rule="evenodd" clip-rule="evenodd" d="M6.25 10.4913C6.25 6.99833 9.04822 4.16669 12.5 4.16669H37.5C40.9518 4.16669 43.75 6.99833 43.75 10.4913V33.184C43.75 35.5797 42.4125 37.7696 40.2951 38.841L27.7951 45.1656C26.0355 46.0559 23.9645 46.0559 22.2049 45.1656L9.70491 38.841C7.58751 37.7696 6.25 35.5796 6.25 33.184V10.4913ZM12.5 8.38312C11.3494 8.38312 10.4167 9.327 10.4167 10.4913V33.184C10.4167 33.9826 10.8625 34.7126 11.5683 35.0697L16.6667 37.6493V8.38312H12.5ZM24.0683 41.3943L20.8333 39.7575V8.38312H29.1667V39.7575L25.9317 41.3943C25.3452 41.6911 24.6548 41.6911 24.0683 41.3943ZM33.3333 37.6493L38.4317 35.0697C39.1375 34.7126 39.5833 33.9826 39.5833 33.184V10.4913C39.5833 9.327 38.6506 8.38312 37.5 8.38312H33.3333V37.6493Z" fill="#206BB0"></path>
  </symbol>
  <symbol fill="none" xmlns="http://www.w3.org/2000/svg" viewBox="0 0 24 24" id="quiz">
    <path d="M10 6V5C10 4.33333 10.4 3 12 3C13.6 3 14 4.33333 14 5V6" stroke="#E2CE19" stroke-width="2"></path>
    <path d="M9 16H11" stroke="#E2CE19" stroke-width="2" stroke-linecap="round" stroke-linejoin="round"></path>
    <path d="M9 13H15" stroke="#E2CE19" stroke-width="2" stroke-linecap="round" stroke-linejoin="round"></path>
    <path d="M9 10H15" stroke="#E2CE19" stroke-width="2" stroke-linecap="round" stroke-linejoin="round"></path>
    <path d="M5 8C5 6.89543 5.89543 6 7 6H17C18.1046 6 19 6.89543 19 8V19C19 20.1046 18.1046 21 17 21H7C5.89543 21 5 20.1046 5 19V8Z" stroke="#E2CE19" stroke-width="2" stroke-linecap="round" stroke-linejoin="round"></path>
  </symbol>
  <symbol fill="none" xmlns="http://www.w3.org/2000/svg" viewBox="0 0 50 50" id="plus-1">
    <path fill-rule="evenodd" clip-rule="evenodd" d="M25.338 4.16669C17.1497 4.16669 10.5118 10.6023 10.5118 18.541C10.5118 21.0566 11.1784 23.4214 12.3496 25.4782L5.0863 35.5351C4.65336 36.1346 4.58218 36.9121 4.89947 37.5761C5.21676 38.2401 5.87455 38.6903 6.62615 38.7577L12.2038 39.258L15.3815 44.7803C15.7369 45.3978 16.3949 45.7946 17.1232 45.8307C17.8516 45.8667 18.5479 45.5369 18.9662 44.9577L25.6221 35.7418L32.107 44.7209C32.5253 45.3001 33.2215 45.6299 33.9499 45.5938C34.6783 45.5578 35.3363 45.161 35.6916 44.5435L38.8693 39.0212L44.447 38.5208C45.1986 38.4534 45.8564 38.0033 46.1737 37.3393C46.491 36.6753 46.4198 35.8977 45.9869 35.2983L38.571 25.0301C39.59 23.0808 40.1642 20.8759 40.1642 18.541C40.1642 10.6023 33.5263 4.16669 25.338 4.16669ZM35.9575 28.5717C33.9694 30.5498 31.3983 31.9745 28.5133 32.5848L33.6387 39.6815L35.7136 36.0756C36.0538 35.4844 36.6728 35.0937 37.3681 35.0314L40.4248 34.7572L35.9575 28.5717ZM10.6484 34.994L15.0535 28.8946C17.1092 30.8145 19.7353 32.1643 22.661 32.6816L17.4345 39.9183L15.3595 36.3125C15.0193 35.7212 14.4004 35.3306 13.705 35.2682L10.6484 34.994ZM14.7479 18.541C14.7479 12.8705 19.4892 8.27363 25.338 8.27363C31.1868 8.27363 35.9281 12.8705 35.9281 18.541C35.9281 24.2115 31.1868 28.8083 25.338 28.8083C19.4892 28.8083 14.7479 24.2115 14.7479 18.541ZM25.338 14.434C22.9985 14.434 21.102 16.2728 21.102 18.541C21.102 20.8092 22.9985 22.6479 25.338 22.6479C27.6775 22.6479 29.5741 20.8092 29.5741 18.541C29.5741 16.2728 27.6775 14.434 25.338 14.434Z" fill="#206BB0"></path>
  </symbol>
  <symbol fill="none" xmlns="http://www.w3.org/2000/svg" viewBox="0 0 50 50" id="plus-2">
    <path fill-rule="evenodd" clip-rule="evenodd" d="M40.5999 12.2597L28.1501 5.01719C26.2008 3.88319 23.7992 3.88319 21.8499 5.01719L9.40013 12.2597C7.45082 13.3937 6.25 15.4895 6.25 17.7575V32.2426C6.25 34.5106 7.45082 36.6063 9.40013 37.7403L21.8499 44.9829C23.7992 46.1168 26.2008 46.1168 28.1501 44.9829L40.5999 37.7403C42.5492 36.6063 43.75 34.5106 43.75 32.2426V17.7575C43.75 15.4895 42.5492 13.3937 40.5999 12.2597ZM23.95 8.68232C24.5997 8.30433 25.4003 8.30433 26.05 8.68232L38.4998 15.9249C39.1496 16.3029 39.5498 17.0015 39.5498 17.7575V32.2426C39.5498 32.9986 39.1496 33.6972 38.4998 34.0752L26.05 41.3177C25.4003 41.6957 24.5997 41.6957 23.95 41.3177L11.5002 34.0752C10.8504 33.6972 10.4502 32.9986 10.4502 32.2426V17.7575C10.4502 17.0015 10.8504 16.3029 11.5002 15.9249L23.95 8.68232ZM31.9471 22.0146C32.6304 21.0703 32.4247 19.7466 31.4875 19.0581C30.5504 18.3695 29.2367 18.5769 28.5533 19.5212L24.0562 25.7355L22.4464 23.6866C21.7265 22.7703 20.4057 22.6155 19.4963 23.3409C18.5869 24.0663 18.4333 25.3972 19.1533 26.3135L22.4784 30.5456C22.8858 31.0641 23.5103 31.3609 24.1665 31.3478C24.8228 31.3347 25.4352 31.0132 25.8218 30.4789L31.9471 22.0146Z" fill="#206BB0"></path>
  </symbol>
  <symbol fill="none" xmlns="http://www.w3.org/2000/svg" viewBox="0 0 20 20" id="person">
    <path fill-rule="evenodd" clip-rule="evenodd" d="M10 20C15.5228 20 20 15.5228 20 10C20 4.47715 15.5228 0 10 0C4.47715 0 0 4.47715 0 10C0 15.5228 4.47715 20 10 20ZM10 9C11.6569 9 13 7.65685 13 6C13 4.34315 11.6569 3 10 3C8.34315 3 7 4.34315 7 6C7 7.65685 8.34315 9 10 9ZM4 14C4.75 11.75 8.5 11 10 11C11.5 11 15.25 11.75 16 14C15.25 16.25 12.25 17 10 17C7.75 17 4.75 16.25 4 14Z" fill="#E2CE19"></path>
  </symbol>
  <symbol fill="none" xmlns="http://www.w3.org/2000/svg" viewBox="0 0 20 20" id="phone">
    <path fill-rule="evenodd" clip-rule="evenodd" d="M10 20C15.5228 20 20 15.5228 20 10C20 4.47715 15.5228 0 10 0C4.47715 0 0 4.47715 0 10C0 15.5228 4.47715 20 10 20ZM14.703 12.4201L13.5148 11.2294C13.1188 10.8325 12.3267 10.8325 11.9307 11.2294L11.1386 12.0232C9.71796 11.8211 8.16834 10.2371 7.97032 8.84798L8.7624 8.05418C9.15843 7.65728 9.15846 6.86345 8.7624 6.46658L7.56717 5.32148C7.17107 4.92457 6.38628 4.87893 5.99019 5.27588C5.19812 6.06968 5 6.66512 5 7.45887C5 8.64961 5.19824 10.0385 7.57445 12.4199C9.95066 14.8013 10.9405 15 12.5246 15C12.9304 15 13.9367 14.7756 14.7029 14.0077C15.099 13.6107 15.099 12.817 14.703 12.4201Z" fill="#E2CE19"></path>
  </symbol>
  <symbol fill="none" xmlns="http://www.w3.org/2000/svg" viewBox="0 0 20 20" id="search">
    <circle cx="8" cy="8" r="7" stroke="#206BB0" stroke-width="2"></circle>
    <path d="M19 19L13 13" stroke="#206BB0" stroke-width="2" stroke-linecap="round" stroke-linejoin="round"></path>
  </symbol>
  <symbol fill="none" xmlns="http://www.w3.org/2000/svg" viewBox="0 0 20 14" id="message">
    <path fill-rule="evenodd" clip-rule="evenodd" d="M3 0C1.34315 0 0 1.34315 0 3V11C0 12.6569 1.34315 14 3 14H17C18.6569 14 20 12.6569 20 11V3C20 1.34315 18.6569 0 17 0H3ZM3.49607 2.13174C3.01655 1.85773 2.40569 2.02433 2.13168 2.50385C1.85767 2.98337 2.02427 3.59422 2.50379 3.86823L9.50379 7.86823C9.81122 8.04391 10.1886 8.04391 10.4961 7.86823L17.4961 3.86823C17.9756 3.59422 18.1422 2.98337 17.8682 2.50385C17.5942 2.02433 16.9833 1.85773 16.5038 2.13174L9.99993 5.84824L3.49607 2.13174Z" fill="#E2CE19"></path>
  </symbol>
  <symbol fill="none" xmlns="http://www.w3.org/2000/svg" viewBox="0 0 304 73" id="logo">
    <path d="M93.304 20.8479V22.3059C93.304 25.0059 92.44 27.1929 90.712 28.8669C88.984 30.5409 86.752 31.3779 84.016 31.3779C81.1 31.3779 78.679 30.4329 76.753 28.5429C74.845 26.6349 73.891 24.3129 73.891 21.5769C73.891 18.8229 74.836 16.4919 76.726 14.5839C78.634 12.6759 80.992 11.7219 83.8 11.7219C85.564 11.7219 87.175 12.1269 88.633 12.9369C90.091 13.7289 91.225 14.7909 92.035 16.1229L88.849 17.9589C88.399 17.1849 87.715 16.5549 86.797 16.0689C85.897 15.5829 84.889 15.3399 83.773 15.3399C81.973 15.3399 80.488 15.9339 79.318 17.1219C78.166 18.2919 77.59 19.7769 77.59 21.5769C77.59 23.3589 78.175 24.8349 79.345 26.0049C80.533 27.1569 82.099 27.7329 84.043 27.7329C85.483 27.7329 86.671 27.4179 87.607 26.7879C88.561 26.1399 89.209 25.2579 89.551 24.1419H83.827V20.8479H93.304Z" fill="#0F2E53"></path>
    <path d="M106.322 30.9999L102.515 24.4389H99.6802V30.9999H95.9542V12.0999H103.514C105.26 12.0999 106.745 12.7119 107.969 13.9359C109.193 15.1599 109.805 16.6359 109.805 18.3639C109.805 19.5339 109.472 20.6229 108.806 21.6309C108.14 22.6209 107.258 23.3679 106.16 23.8719L110.345 30.9999H106.322ZM99.6802 15.5829V21.1719H103.514C104.216 21.1719 104.819 20.9019 105.323 20.3619C105.827 19.8039 106.079 19.1379 106.079 18.3639C106.079 17.5899 105.827 16.9329 105.323 16.3929C104.819 15.8529 104.216 15.5829 103.514 15.5829H99.6802Z" fill="#0F2E53"></path>
    <path d="M124.689 30.9999L123.555 27.5979H116.022L114.888 30.9999H110.865L117.48 12.0999H122.097L128.739 30.9999H124.689ZM117.21 24.1149H122.394L119.802 16.3929L117.21 24.1149Z" fill="#0F2E53"></path>
    <path d="M138.08 12.0999C140.672 12.0999 142.832 13.0089 144.56 14.8269C146.306 16.6449 147.179 18.8859 147.179 21.5499C147.179 24.2139 146.306 26.4549 144.56 28.2729C142.832 30.0909 140.672 30.9999 138.08 30.9999H130.574V12.0999H138.08ZM138.08 27.4359C139.718 27.4359 141.05 26.8959 142.076 25.8159C143.102 24.7179 143.615 23.2959 143.615 21.5499C143.615 19.8039 143.102 18.3909 142.076 17.3109C141.05 16.2129 139.718 15.6639 138.08 15.6639H134.3V27.4359H138.08Z" fill="#0F2E53"></path>
    <path d="M149.822 12.0999H153.548V30.9999H149.822V12.0999Z" fill="#0F2E53"></path>
    <path d="M167.415 30.9999L163.608 24.4389H160.773V30.9999H157.047V12.0999H164.607C166.353 12.0999 167.838 12.7119 169.062 13.9359C170.286 15.1599 170.898 16.6359 170.898 18.3639C170.898 19.5339 170.565 20.6229 169.899 21.6309C169.233 22.6209 168.351 23.3679 167.253 23.8719L171.438 30.9999H167.415ZM160.773 15.5829V21.1719H164.607C165.309 21.1719 165.912 20.9019 166.416 20.3619C166.92 19.8039 167.172 19.1379 167.172 18.3639C167.172 17.5899 166.92 16.9329 166.416 16.3929C165.912 15.8529 165.309 15.5829 164.607 15.5829H160.773Z" fill="#0F2E53"></path>
    <path d="M184.567 12.0999H188.293V30.9999H185.458L177.358 19.4439V30.9999H173.632V12.0999H176.467L184.567 23.6289V12.0999Z" fill="#0F2E53"></path>
    <path d="M191.799 12.0999H195.525V30.9999H191.799V12.0999Z" fill="#0F2E53"></path>
    <path d="M199.024 24.5199V21.1719H209.149V24.5199H199.024Z" fill="#0F2E53"></path>
    <path d="M223.023 30.9999L219.216 24.4389H216.381V30.9999H212.655V12.0999H220.215C221.961 12.0999 223.446 12.7119 224.67 13.9359C225.894 15.1599 226.506 16.6359 226.506 18.3639C226.506 19.5339 226.173 20.6229 225.507 21.6309C224.841 22.6209 223.959 23.3679 222.861 23.8719L227.046 30.9999H223.023ZM216.381 15.5829V21.1719H220.215C220.917 21.1719 221.52 20.9019 222.024 20.3619C222.528 19.8039 222.78 19.1379 222.78 18.3639C222.78 17.5899 222.528 16.9329 222.024 16.3929C221.52 15.8529 220.917 15.5829 220.215 15.5829H216.381Z" fill="#0F2E53"></path>
    <path d="M236.156 31.3779C234.049 31.3779 232.322 30.7839 230.971 29.5959C229.621 28.4079 228.947 26.8149 228.947 24.8169V12.0999H232.646V24.5199C232.646 25.5099 232.924 26.2929 233.482 26.8689C234.059 27.4449 234.95 27.7329 236.156 27.7329C237.361 27.7329 238.243 27.4449 238.801 26.8689C239.378 26.2929 239.665 25.5099 239.665 24.5199V12.0999H243.391V24.8169C243.391 26.8149 242.717 28.4079 241.367 29.5959C240.016 30.7839 238.28 31.3779 236.156 31.3779Z" fill="#0F2E53"></path>
    <path d="M253.201 31.3779C251.329 31.3779 249.754 30.9639 248.476 30.1359C247.198 29.2899 246.298 28.1469 245.776 26.7069L248.962 24.8439C249.7 26.7699 251.149 27.7329 253.309 27.7329C254.353 27.7329 255.118 27.5439 255.604 27.1659C256.09 26.7879 256.333 26.3109 256.333 25.7349C256.333 25.0689 256.036 24.5559 255.442 24.1959C254.848 23.8179 253.786 23.4129 252.256 22.9809C251.41 22.7289 250.69 22.4769 250.096 22.2249C249.52 21.9729 248.935 21.6399 248.341 21.2259C247.765 20.7939 247.324 20.2539 247.018 19.6059C246.712 18.9579 246.559 18.2019 246.559 17.3379C246.559 15.6279 247.162 14.2689 248.368 13.2609C249.592 12.2349 251.059 11.7219 252.769 11.7219C254.299 11.7219 255.64 12.0999 256.792 12.8559C257.962 13.5939 258.871 14.6289 259.519 15.9609L256.387 17.7699C255.631 16.1499 254.425 15.3399 252.769 15.3399C251.995 15.3399 251.383 15.5199 250.933 15.8799C250.501 16.2219 250.285 16.6719 250.285 17.2299C250.285 17.8239 250.528 18.3099 251.014 18.6879C251.518 19.0479 252.472 19.4439 253.876 19.8759C254.452 20.0559 254.884 20.1999 255.172 20.3079C255.478 20.3979 255.883 20.5509 256.387 20.7669C256.909 20.9649 257.305 21.1539 257.575 21.3339C257.863 21.5139 258.187 21.7569 258.547 22.0629C258.907 22.3689 259.177 22.6839 259.357 23.0079C259.555 23.3319 259.717 23.7279 259.843 24.1959C259.987 24.6459 260.059 25.1409 260.059 25.6809C260.059 27.4269 259.42 28.8129 258.142 29.8389C256.882 30.8649 255.235 31.3779 253.201 31.3779Z" fill="#0F2E53"></path>
    <path d="M268.362 31.3779C266.49 31.3779 264.915 30.9639 263.637 30.1359C262.359 29.2899 261.459 28.1469 260.937 26.7069L264.123 24.8439C264.861 26.7699 266.31 27.7329 268.47 27.7329C269.514 27.7329 270.279 27.5439 270.765 27.1659C271.251 26.7879 271.494 26.3109 271.494 25.7349C271.494 25.0689 271.197 24.5559 270.603 24.1959C270.009 23.8179 268.947 23.4129 267.417 22.9809C266.571 22.7289 265.851 22.4769 265.257 22.2249C264.681 21.9729 264.096 21.6399 263.502 21.2259C262.926 20.7939 262.485 20.2539 262.179 19.6059C261.873 18.9579 261.72 18.2019 261.72 17.3379C261.72 15.6279 262.323 14.2689 263.529 13.2609C264.753 12.2349 266.22 11.7219 267.93 11.7219C269.46 11.7219 270.801 12.0999 271.953 12.8559C273.123 13.5939 274.032 14.6289 274.68 15.9609L271.548 17.7699C270.792 16.1499 269.586 15.3399 267.93 15.3399C267.156 15.3399 266.544 15.5199 266.094 15.8799C265.662 16.2219 265.446 16.6719 265.446 17.2299C265.446 17.8239 265.689 18.3099 266.175 18.6879C266.679 19.0479 267.633 19.4439 269.037 19.8759C269.613 20.0559 270.045 20.1999 270.333 20.3079C270.639 20.3979 271.044 20.5509 271.548 20.7669C272.07 20.9649 272.466 21.1539 272.736 21.3339C273.024 21.5139 273.348 21.7569 273.708 22.0629C274.068 22.3689 274.338 22.6839 274.518 23.0079C274.716 23.3319 274.878 23.7279 275.004 24.1959C275.148 24.6459 275.22 25.1409 275.22 25.6809C275.22 27.4269 274.581 28.8129 273.303 29.8389C272.043 30.8649 270.396 31.3779 268.362 31.3779Z" fill="#0F2E53"></path>
    <path d="M277.519 12.0999H281.245V30.9999H277.519V12.0999Z" fill="#0F2E53"></path>
    <path d="M296.893 30.9999L295.759 27.5979H288.226L287.092 30.9999H283.069L289.684 12.0999H294.301L300.943 30.9999H296.893ZM289.414 24.1149H294.598L292.006 16.3929L289.414 24.1149Z" fill="#0F2E53"></path>
    <path d="M73.6278 37.3936V36.3779H80.7187V37.3936H77.7457V45.8325H76.6008V37.3936H73.6278Z" fill="#206BB0"></path>
    <path d="M84.2826 45.9802C83.5994 45.9802 83.01 45.8294 82.5145 45.5278C82.0221 45.2231 81.642 44.7984 81.3743 44.2536C81.1096 43.7058 80.9772 43.0687 80.9772 42.3424C80.9772 41.6161 81.1096 40.9759 81.3743 40.422C81.642 39.8649 82.0144 39.431 82.4914 39.1201C82.9716 38.8062 83.5317 38.6492 84.1718 38.6492C84.5412 38.6492 84.9059 38.7108 85.2659 38.8339C85.626 38.957 85.9538 39.157 86.2493 39.434C86.5447 39.7079 86.7802 40.0711 86.9556 40.5235C87.131 40.9759 87.2187 41.533 87.2187 42.1947V42.6563H81.7528V41.7146H86.1108C86.1108 41.3145 86.0307 40.9575 85.8707 40.6436C85.7137 40.3296 85.4891 40.0819 85.1967 39.9003C84.9074 39.7187 84.5658 39.6279 84.1718 39.6279C83.7379 39.6279 83.3624 39.7356 83.0454 39.9511C82.7315 40.1634 82.4899 40.4404 82.3206 40.782C82.1514 41.1237 82.0667 41.4899 82.0667 41.8808V42.5086C82.0667 43.0441 82.1591 43.4981 82.3437 43.8705C82.5315 44.2398 82.7915 44.5214 83.1239 44.7153C83.4563 44.9061 83.8425 45.0015 84.2826 45.0015C84.5689 45.0015 84.8274 44.9615 85.0582 44.8815C85.2921 44.7984 85.4937 44.6753 85.663 44.5122C85.8322 44.346 85.963 44.1398 86.0554 43.8936L87.1079 44.189C86.9971 44.546 86.8109 44.8599 86.5493 45.1308C86.2877 45.3985 85.9646 45.6078 85.5799 45.7586C85.1952 45.9063 84.7628 45.9802 84.2826 45.9802Z" fill="#206BB0"></path>
    <path d="M89.4981 38.7416L91.197 41.6407L92.8958 38.7416H94.1515L91.8617 42.287L94.1515 45.8325H92.8958L91.197 43.0811L89.4981 45.8325H88.2424L90.4953 42.287L88.2424 38.7416H89.4981Z" fill="#206BB0"></path>
    <path d="M100.452 41.7884V42.8041H96.5371V41.7884H100.452ZM96.7956 38.7416V45.8325H95.7061V38.7416H96.7956ZM101.283 38.7416V45.8325H100.193V38.7416H101.283Z" fill="#206BB0"></path>
    <path d="M106.153 45.9802C105.513 45.9802 104.951 45.8279 104.468 45.5232C103.988 45.2185 103.613 44.7922 103.342 44.2444C103.074 43.6966 102.94 43.0564 102.94 42.324C102.94 41.5853 103.074 40.9405 103.342 40.3896C103.613 39.8387 103.988 39.411 104.468 39.1063C104.951 38.8016 105.513 38.6492 106.153 38.6492C106.793 38.6492 107.353 38.8016 107.834 39.1063C108.317 39.411 108.692 39.8387 108.96 40.3896C109.231 40.9405 109.366 41.5853 109.366 42.324C109.366 43.0564 109.231 43.6966 108.96 44.2444C108.692 44.7922 108.317 45.2185 107.834 45.5232C107.353 45.8279 106.793 45.9802 106.153 45.9802ZM106.153 45.0015C106.639 45.0015 107.04 44.8769 107.353 44.6276C107.667 44.3783 107.9 44.0505 108.051 43.6443C108.201 43.238 108.277 42.7979 108.277 42.324C108.277 41.85 108.201 41.4084 108.051 40.999C107.9 40.5897 107.667 40.2588 107.353 40.0065C107.04 39.7541 106.639 39.6279 106.153 39.6279C105.667 39.6279 105.267 39.7541 104.953 40.0065C104.639 40.2588 104.407 40.5897 104.256 40.999C104.105 41.4084 104.03 41.85 104.03 42.324C104.03 42.7979 104.105 43.238 104.256 43.6443C104.407 44.0505 104.639 44.3783 104.953 44.6276C105.267 44.8769 105.667 45.0015 106.153 45.0015Z" fill="#206BB0"></path>
    <path d="M110.402 45.8325V44.8169H110.66C110.872 44.8169 111.049 44.7753 111.191 44.6922C111.333 44.606 111.446 44.4568 111.533 44.2444C111.622 44.029 111.69 43.7304 111.736 43.3488C111.785 42.9641 111.82 42.4748 111.842 41.8808L111.971 38.7416H116.698V45.8325H115.609V39.7572H113.005L112.894 42.287C112.87 42.8687 112.817 43.3811 112.737 43.8243C112.661 44.2644 112.542 44.6337 112.382 44.9323C112.225 45.2308 112.016 45.4555 111.754 45.6063C111.493 45.7571 111.165 45.8325 110.771 45.8325H110.402Z" fill="#206BB0"></path>
    <path d="M121.578 45.9802C120.938 45.9802 120.376 45.8279 119.893 45.5232C119.413 45.2185 119.037 44.7922 118.767 44.2444C118.499 43.6966 118.365 43.0564 118.365 42.324C118.365 41.5853 118.499 40.9405 118.767 40.3896C119.037 39.8387 119.413 39.411 119.893 39.1063C120.376 38.8016 120.938 38.6492 121.578 38.6492C122.218 38.6492 122.778 38.8016 123.258 39.1063C123.742 39.411 124.117 39.8387 124.385 40.3896C124.656 40.9405 124.791 41.5853 124.791 42.324C124.791 43.0564 124.656 43.6966 124.385 44.2444C124.117 44.7922 123.742 45.2185 123.258 45.5232C122.778 45.8279 122.218 45.9802 121.578 45.9802ZM121.578 45.0015C122.064 45.0015 122.464 44.8769 122.778 44.6276C123.092 44.3783 123.325 44.0505 123.475 43.6443C123.626 43.238 123.702 42.7979 123.702 42.324C123.702 41.85 123.626 41.4084 123.475 40.999C123.325 40.5897 123.092 40.2588 122.778 40.0065C122.464 39.7541 122.064 39.6279 121.578 39.6279C121.092 39.6279 120.692 39.7541 120.378 40.0065C120.064 40.2588 119.831 40.5897 119.681 40.999C119.53 41.4084 119.454 41.85 119.454 42.324C119.454 42.7979 119.53 43.238 119.681 43.6443C119.831 44.0505 120.064 44.3783 120.378 44.6276C120.692 44.8769 121.092 45.0015 121.578 45.0015Z" fill="#206BB0"></path>
    <path d="M130.831 38.7416V39.7572H127.544V45.8325H126.454V38.7416H130.831Z" fill="#206BB0"></path>
    <path d="M133.51 44.2259L136.927 38.7416H138.182V45.8325H137.093V40.3481L133.695 45.8325H132.421V38.7416H133.51V44.2259Z" fill="#206BB0"></path>
    <path d="M141.267 44.2259L144.683 38.7416H145.939V45.8325H144.85V40.3481L141.452 45.8325H140.178V38.7416H141.267V44.2259Z" fill="#206BB0"></path>
    <path d="M151.591 45.8325V38.7416H157.168V45.8325H156.078V39.7572H152.68V45.8325H151.591Z" fill="#206BB0"></path>
    <path d="M159.157 48.4916V38.7416H160.21V39.868H160.339C160.419 39.7449 160.53 39.5879 160.671 39.3971C160.816 39.2032 161.022 39.0309 161.29 38.8801C161.561 38.7262 161.927 38.6492 162.389 38.6492C162.986 38.6492 163.512 38.7985 163.968 39.097C164.423 39.3956 164.779 39.8187 165.034 40.3666C165.29 40.9144 165.417 41.5607 165.417 42.3055C165.417 43.0564 165.29 43.7074 165.034 44.2583C164.779 44.8061 164.425 45.2308 163.972 45.5324C163.52 45.8309 162.998 45.9802 162.407 45.9802C161.952 45.9802 161.587 45.9048 161.313 45.754C161.039 45.6001 160.828 45.4262 160.681 45.2323C160.533 45.0354 160.419 44.8722 160.339 44.743H160.247V48.4916H159.157ZM160.228 42.287C160.228 42.8225 160.307 43.295 160.464 43.7043C160.621 44.1105 160.85 44.4291 161.152 44.6599C161.453 44.8876 161.823 45.0015 162.26 45.0015C162.715 45.0015 163.095 44.8815 163.4 44.6414C163.708 44.3983 163.938 44.0721 164.092 43.6627C164.249 43.2503 164.328 42.7918 164.328 42.287C164.328 41.7884 164.251 41.3391 164.097 40.939C163.946 40.5358 163.717 40.2173 163.409 39.9834C163.104 39.7464 162.721 39.6279 162.26 39.6279C161.816 39.6279 161.444 39.7403 161.142 39.9649C160.841 40.1865 160.613 40.4974 160.459 40.8975C160.305 41.2945 160.228 41.7577 160.228 42.287Z" fill="#206BB0"></path>
    <path d="M169.96 45.9802C169.32 45.9802 168.758 45.8279 168.275 45.5232C167.795 45.2185 167.419 44.7922 167.148 44.2444C166.881 43.6966 166.747 43.0564 166.747 42.324C166.747 41.5853 166.881 40.9405 167.148 40.3896C167.419 39.8387 167.795 39.411 168.275 39.1063C168.758 38.8016 169.32 38.6492 169.96 38.6492C170.6 38.6492 171.16 38.8016 171.64 39.1063C172.123 39.411 172.499 39.8387 172.767 40.3896C173.037 40.9405 173.173 41.5853 173.173 42.324C173.173 43.0564 173.037 43.6966 172.767 44.2444C172.499 44.7922 172.123 45.2185 171.64 45.5232C171.16 45.8279 170.6 45.9802 169.96 45.9802ZM169.96 45.0015C170.446 45.0015 170.846 44.8769 171.16 44.6276C171.474 44.3783 171.706 44.0505 171.857 43.6443C172.008 43.238 172.083 42.7979 172.083 42.324C172.083 41.85 172.008 41.4084 171.857 40.999C171.706 40.5897 171.474 40.2588 171.16 40.0065C170.846 39.7541 170.446 39.6279 169.96 39.6279C169.474 39.6279 169.073 39.7541 168.76 40.0065C168.446 40.2588 168.213 40.5897 168.062 40.999C167.912 41.4084 167.836 41.85 167.836 42.324C167.836 42.7979 167.912 43.238 168.062 43.6443C168.213 44.0505 168.446 44.3783 168.76 44.6276C169.073 44.8769 169.474 45.0015 169.96 45.0015Z" fill="#206BB0"></path>
    <path d="M178.714 44.3552L181.188 38.7416H182.222L179.157 45.8325H178.271L175.261 38.7416H176.276L178.714 44.3552ZM175.925 38.7416V45.8325H174.836V38.7416H175.925ZM181.502 45.8325V38.7416H182.592V45.8325H181.502Z" fill="#206BB0"></path>
    <path d="M185.528 41.3083H187.559C188.39 41.3083 189.026 41.5191 189.466 41.9408C189.906 42.3624 190.126 42.8964 190.126 43.5427C190.126 43.9674 190.027 44.3537 189.83 44.7014C189.633 45.0461 189.344 45.3216 188.962 45.5278C188.581 45.7309 188.113 45.8325 187.559 45.8325H184.586V38.7416H185.675V44.8169H187.559C187.99 44.8169 188.344 44.703 188.621 44.4752C188.898 44.2475 189.036 43.9551 189.036 43.5981C189.036 43.2226 188.898 42.9164 188.621 42.6794C188.344 42.4424 187.99 42.324 187.559 42.324H185.528V41.3083ZM191.252 45.8325V38.7416H192.342V45.8325H191.252Z" fill="#206BB0"></path>
    <path d="M194.336 38.7416H195.425V44.8169H198.103V38.7416H199.193V44.8169H201.87V38.7416H202.96V45.8325H194.336V38.7416Z" fill="#206BB0"></path>
    <path d="M204.321 45.8325V44.8169H204.58C204.792 44.8169 204.969 44.7753 205.111 44.6922C205.252 44.606 205.366 44.4568 205.452 44.2444C205.542 44.029 205.609 43.7304 205.656 43.3488C205.705 42.9641 205.74 42.4748 205.762 41.8808L205.891 38.7416H210.618V45.8325H209.529V39.7572H206.925L206.814 42.287C206.79 42.8687 206.737 43.3811 206.657 43.8243C206.58 44.2644 206.462 44.6337 206.302 44.9323C206.145 45.2308 205.936 45.4555 205.674 45.6063C205.412 45.7571 205.085 45.8325 204.691 45.8325H204.321Z" fill="#206BB0"></path>
    <path d="M215.59 45.9802C214.907 45.9802 214.318 45.8294 213.822 45.5278C213.33 45.2231 212.95 44.7984 212.682 44.2536C212.417 43.7058 212.285 43.0687 212.285 42.3424C212.285 41.6161 212.417 40.9759 212.682 40.422C212.95 39.8649 213.322 39.431 213.799 39.1201C214.279 38.8062 214.839 38.6492 215.479 38.6492C215.849 38.6492 216.213 38.7108 216.574 38.8339C216.934 38.957 217.261 39.157 217.557 39.434C217.852 39.7079 218.088 40.0711 218.263 40.5235C218.439 40.9759 218.526 41.533 218.526 42.1947V42.6563H213.06V41.7146H217.418C217.418 41.3145 217.338 40.9575 217.178 40.6436C217.021 40.3296 216.797 40.0819 216.504 39.9003C216.215 39.7187 215.873 39.6279 215.479 39.6279C215.046 39.6279 214.67 39.7356 214.353 39.9511C214.039 40.1634 213.798 40.4404 213.628 40.782C213.459 41.1237 213.374 41.4899 213.374 41.8808V42.5086C213.374 43.0441 213.467 43.4981 213.651 43.8705C213.839 44.2398 214.099 44.5214 214.432 44.7153C214.764 44.9061 215.15 45.0015 215.59 45.0015C215.876 45.0015 216.135 44.9615 216.366 44.8815C216.6 44.7984 216.801 44.6753 216.971 44.5122C217.14 44.346 217.271 44.1398 217.363 43.8936L218.416 44.189C218.305 44.546 218.119 44.8599 217.857 45.1308C217.595 45.3985 217.272 45.6078 216.887 45.7586C216.503 45.9063 216.07 45.9802 215.59 45.9802Z" fill="#206BB0"></path>
    <path d="M224.929 41.7884V42.8041H221.015V41.7884H224.929ZM221.273 38.7416V45.8325H220.184V38.7416H221.273ZM225.76 38.7416V45.8325H224.671V38.7416H225.76Z" fill="#206BB0"></path>
    <path d="M232.496 41.7884V42.8041H228.581V41.7884H232.496ZM228.84 38.7416V45.8325H227.75V38.7416H228.84ZM233.327 38.7416V45.8325H232.237V38.7416H233.327Z" fill="#206BB0"></path>
    <path d="M238.197 45.9802C237.557 45.9802 236.995 45.8279 236.512 45.5232C236.032 45.2185 235.657 44.7922 235.386 44.2444C235.118 43.6966 234.984 43.0564 234.984 42.324C234.984 41.5853 235.118 40.9405 235.386 40.3896C235.657 39.8387 236.032 39.411 236.512 39.1063C236.995 38.8016 237.557 38.6492 238.197 38.6492C238.837 38.6492 239.397 38.8016 239.878 39.1063C240.361 39.411 240.736 39.8387 241.004 40.3896C241.275 40.9405 241.41 41.5853 241.41 42.324C241.41 43.0564 241.275 43.6966 241.004 44.2444C240.736 44.7922 240.361 45.2185 239.878 45.5232C239.397 45.8279 238.837 45.9802 238.197 45.9802ZM238.197 45.0015C238.683 45.0015 239.084 44.8769 239.397 44.6276C239.711 44.3783 239.944 44.0505 240.095 43.6443C240.245 43.238 240.321 42.7979 240.321 42.324C240.321 41.85 240.245 41.4084 240.095 40.999C239.944 40.5897 239.711 40.2588 239.397 40.0065C239.084 39.7541 238.683 39.6279 238.197 39.6279C237.711 39.6279 237.311 39.7541 236.997 40.0065C236.683 40.2588 236.451 40.5897 236.3 40.999C236.149 41.4084 236.074 41.85 236.074 42.324C236.074 42.7979 236.149 43.238 236.3 43.6443C236.451 44.0505 236.683 44.3783 236.997 44.6276C237.311 44.8769 237.711 45.0015 238.197 45.0015Z" fill="#206BB0"></path>
    <path d="M247.45 38.7416V39.7572H244.163V45.8325H243.073V38.7416H247.45Z" fill="#206BB0"></path>
    <path d="M251.553 45.9802C250.912 45.9802 250.351 45.8279 249.868 45.5232C249.387 45.2185 249.012 44.7922 248.741 44.2444C248.473 43.6966 248.34 43.0564 248.34 42.324C248.34 41.5853 248.473 40.9405 248.741 40.3896C249.012 39.8387 249.387 39.411 249.868 39.1063C250.351 38.8016 250.912 38.6492 251.553 38.6492C252.193 38.6492 252.753 38.8016 253.233 39.1063C253.716 39.411 254.092 39.8387 254.359 40.3896C254.63 40.9405 254.766 41.5853 254.766 42.324C254.766 43.0564 254.63 43.6966 254.359 44.2444C254.092 44.7922 253.716 45.2185 253.233 45.5232C252.753 45.8279 252.193 45.9802 251.553 45.9802ZM251.553 45.0015C252.039 45.0015 252.439 44.8769 252.753 44.6276C253.067 44.3783 253.299 44.0505 253.45 43.6443C253.601 43.238 253.676 42.7979 253.676 42.324C253.676 41.85 253.601 41.4084 253.45 40.999C253.299 40.5897 253.067 40.2588 252.753 40.0065C252.439 39.7541 252.039 39.6279 251.553 39.6279C251.066 39.6279 250.666 39.7541 250.352 40.0065C250.038 40.2588 249.806 40.5897 249.655 40.999C249.504 41.4084 249.429 41.85 249.429 42.324C249.429 42.7979 249.504 43.238 249.655 43.6443C249.806 44.0505 250.038 44.3783 250.352 44.6276C250.666 44.8769 251.066 45.0015 251.553 45.0015Z" fill="#206BB0"></path>
    <path d="M260.898 38.7416L262.596 41.6407L264.295 38.7416H265.551L263.261 42.287L265.551 45.8325H264.295L262.596 43.0811L260.898 45.8325H259.642L261.895 42.287L259.642 38.7416H260.898Z" fill="#206BB0"></path>
    <path d="M269.694 45.9802C269.054 45.9802 268.492 45.8279 268.009 45.5232C267.529 45.2185 267.154 44.7922 266.883 44.2444C266.615 43.6966 266.481 43.0564 266.481 42.324C266.481 41.5853 266.615 40.9405 266.883 40.3896C267.154 39.8387 267.529 39.411 268.009 39.1063C268.492 38.8016 269.054 38.6492 269.694 38.6492C270.334 38.6492 270.895 38.8016 271.375 39.1063C271.858 39.411 272.233 39.8387 272.501 40.3896C272.772 40.9405 272.907 41.5853 272.907 42.324C272.907 43.0564 272.772 43.6966 272.501 44.2444C272.233 44.7922 271.858 45.2185 271.375 45.5232C270.895 45.8279 270.334 45.9802 269.694 45.9802ZM269.694 45.0015C270.18 45.0015 270.581 44.8769 270.895 44.6276C271.208 44.3783 271.441 44.0505 271.592 43.6443C271.742 43.238 271.818 42.7979 271.818 42.324C271.818 41.85 271.742 41.4084 271.592 40.999C271.441 40.5897 271.208 40.2588 270.895 40.0065C270.581 39.7541 270.18 39.6279 269.694 39.6279C269.208 39.6279 268.808 39.7541 268.494 40.0065C268.18 40.2588 267.948 40.5897 267.797 40.999C267.646 41.4084 267.571 41.85 267.571 42.324C267.571 42.7979 267.646 43.238 267.797 43.6443C267.948 44.0505 268.18 44.3783 268.494 44.6276C268.808 44.8769 269.208 45.0015 269.694 45.0015Z" fill="#206BB0"></path>
    <path d="M273.943 45.8325V44.8169H274.201C274.413 44.8169 274.59 44.7753 274.732 44.6922C274.874 44.606 274.987 44.4568 275.074 44.2444C275.163 44.029 275.231 43.7304 275.277 43.3488C275.326 42.9641 275.361 42.4748 275.383 41.8808L275.512 38.7416H280.239V45.8325H279.15V39.7572H276.546L276.435 42.287C276.411 42.8687 276.358 43.3811 276.278 43.8243C276.202 44.2644 276.083 44.6337 275.923 44.9323C275.766 45.2308 275.557 45.4555 275.295 45.6063C275.034 45.7571 274.706 45.8325 274.312 45.8325H273.943Z" fill="#206BB0"></path>
    <path d="M285.119 45.9802C284.479 45.9802 283.917 45.8279 283.434 45.5232C282.954 45.2185 282.578 44.7922 282.308 44.2444C282.04 43.6966 281.906 43.0564 281.906 42.324C281.906 41.5853 282.04 40.9405 282.308 40.3896C282.578 39.8387 282.954 39.411 283.434 39.1063C283.917 38.8016 284.479 38.6492 285.119 38.6492C285.759 38.6492 286.319 38.8016 286.799 39.1063C287.283 39.411 287.658 39.8387 287.926 40.3896C288.197 40.9405 288.332 41.5853 288.332 42.324C288.332 43.0564 288.197 43.6966 287.926 44.2444C287.658 44.7922 287.283 45.2185 286.799 45.5232C286.319 45.8279 285.759 45.9802 285.119 45.9802ZM285.119 45.0015C285.605 45.0015 286.005 44.8769 286.319 44.6276C286.633 44.3783 286.866 44.0505 287.016 43.6443C287.167 43.238 287.243 42.7979 287.243 42.324C287.243 41.85 287.167 41.4084 287.016 40.999C286.866 40.5897 286.633 40.2588 286.319 40.0065C286.005 39.7541 285.605 39.6279 285.119 39.6279C284.633 39.6279 284.233 39.7541 283.919 40.0065C283.605 40.2588 283.372 40.5897 283.222 40.999C283.071 41.4084 282.995 41.85 282.995 42.324C282.995 42.7979 283.071 43.238 283.222 43.6443C283.372 44.0505 283.605 44.3783 283.919 44.6276C284.233 44.8769 284.633 45.0015 285.119 45.0015Z" fill="#206BB0"></path>
    <path d="M289.238 47.8637V44.8169H289.829C289.974 44.666 290.098 44.5029 290.203 44.3275C290.308 44.1521 290.398 43.9443 290.475 43.7043C290.555 43.4611 290.623 43.1657 290.678 42.8179C290.734 42.4671 290.783 42.0439 290.826 41.5484L291.066 38.7416H295.572V44.8169H296.661V47.8637H295.572V45.8325H290.328V47.8637H289.238ZM291.066 44.8169H294.482V39.7572H292.082L291.897 41.5484C291.82 42.2901 291.725 42.9379 291.611 43.4919C291.497 44.0459 291.315 44.4875 291.066 44.8169Z" fill="#206BB0"></path>
    <path d="M300.194 45.9987C299.745 45.9987 299.337 45.914 298.971 45.7448C298.605 45.5724 298.314 45.3247 298.098 45.0015C297.883 44.6753 297.775 44.2813 297.775 43.8197C297.775 43.4134 297.855 43.0841 298.015 42.8318C298.175 42.5763 298.389 42.3763 298.657 42.2316C298.925 42.087 299.22 41.9793 299.543 41.9085C299.869 41.8346 300.197 41.7761 300.527 41.733C300.957 41.6776 301.307 41.6361 301.574 41.6084C301.845 41.5776 302.042 41.5268 302.165 41.4561C302.292 41.3853 302.355 41.2622 302.355 41.0867V41.0498C302.355 40.5943 302.23 40.2404 301.981 39.988C301.734 39.7356 301.361 39.6095 300.859 39.6095C300.339 39.6095 299.931 39.7233 299.636 39.9511C299.34 40.1788 299.132 40.422 299.012 40.6805L297.978 40.3112C298.163 39.8803 298.409 39.5448 298.717 39.3048C299.028 39.0616 299.366 38.8924 299.732 38.797C300.102 38.6985 300.465 38.6492 300.822 38.6492C301.05 38.6492 301.311 38.6769 301.607 38.7323C301.905 38.7847 302.193 38.8939 302.47 39.0601C302.75 39.2263 302.982 39.4771 303.167 39.8126C303.352 40.1481 303.444 40.5974 303.444 41.1606V45.8325H302.355V44.8722H302.299C302.225 45.0261 302.102 45.1908 301.93 45.3662C301.758 45.5416 301.528 45.6909 301.242 45.814C300.956 45.9371 300.607 45.9987 300.194 45.9987ZM300.36 45.02C300.791 45.02 301.154 44.9353 301.45 44.7661C301.748 44.5968 301.973 44.3783 302.124 44.1105C302.278 43.8428 302.355 43.5612 302.355 43.2657V42.2686C302.308 42.324 302.207 42.3747 302.05 42.4209C301.896 42.464 301.718 42.5025 301.514 42.5363C301.314 42.5671 301.119 42.5948 300.928 42.6194C300.74 42.641 300.588 42.6594 300.471 42.6748C300.188 42.7117 299.923 42.7718 299.677 42.8548C299.434 42.9349 299.237 43.0564 299.086 43.2195C298.938 43.3796 298.865 43.5981 298.865 43.8751C298.865 44.2536 299.005 44.5399 299.285 44.7338C299.568 44.9246 299.926 45.02 300.36 45.02Z" fill="#206BB0"></path>
    <path d="M11.5442 17.0439C29.3513 7.08928 37.3217 21.1917 39.081 29.4872C51.0901 22.3205 44.7413 -4.53495 20.7996 0.662875C1.64629 4.82113 -0.89831 25.2869 0.223558 35C3.22201 3.49804 22.0745 4.91564 31.1259 9.56219C18.0919 6.72701 12.6406 13.3687 11.5442 17.0439Z" fill="#E4E4E4"></path>
    <path d="M53.417 20.041C50.5694 40.5168 34.4965 38.7645 26.8161 35.3289C25.2571 49.4043 50.5171 59.9903 60.8734 37.2763C69.1585 19.1051 54.3802 4.9765 45.9554 0.183616C69.2591 21.1771 56.7101 35.8212 47.5226 40.519C57.6779 31.4858 55.6835 23.1032 53.417 20.041Z" fill="#2062B0"></path>
    <path d="M31.9546 53.4404C14.3281 42.6389 22.3643 28.6094 28.5858 22.9449C16.3095 15.8849 -3.49815 34.8002 13.1756 53.3788C26.5147 68.2417 45.3756 60.35 53.1387 54.5464C24.5754 67.505 16.1749 50.1453 15.545 39.8457C19.7609 52.7668 28.2414 54.2926 31.9546 53.4404Z" fill="#E23529"></path>
  </symbol>
</svg>